<svg width="1158" height="166" viewBox="0 0 1158 166" fill="none" xmlns="http://www.w3.org/2000/svg">
<path d="M78.901 84H77.901V84.5927L78.421 84.8773L78.901 84ZM11.901 162H10.901V163H11.901V162ZM11.901 8.66666V7.66666H10.901V8.66666H11.901ZM78.901 82L78.4538 81.1056L77.901 81.382V82H78.901ZM47.0677 38V37H46.0677V38H47.0677ZM47.0677 72.6667H46.0677V73.6667H47.0677V72.6667ZM47.0677 95.6667V94.6667H46.0677V95.6667H47.0677ZM47.0677 132.333H46.0677V133.333H47.0677V132.333ZM78.421 84.8773C82.6963 87.2165 85.6259 90.0871 87.4991 93.5771C89.3776 97.0771 90.2344 101.276 90.2344 106.333H92.2344C92.2344 101.057 91.3411 96.5062 89.2613 92.6313C87.1762 88.7463 83.9391 85.6168 79.3811 83.1227L78.421 84.8773ZM90.2344 106.333V127.167H92.2344V106.333H90.2344ZM90.2344 127.167C90.2344 139.928 88.8364 148.286 84.429 153.5C80.0656 158.662 72.5121 161 59.401 161V163C72.6233 163 80.9865 160.671 85.9564 154.791C90.8824 148.964 92.2344 139.905 92.2344 127.167H90.2344ZM59.401 161H11.901V163H59.401V161ZM12.901 162V8.66666H10.901V162H12.901ZM11.901 9.66666H59.0677V7.66666H11.901V9.66666ZM59.0677 9.66666C71.6689 9.66666 78.9707 12.0003 83.2121 17.1561C87.5041 22.3735 88.901 30.7402 88.901 43.5H90.901C90.901 30.7597 89.548 21.7099 84.7566 15.8855C79.9147 9.99964 71.7998 7.66666 59.0677 7.66666V9.66666ZM88.901 43.5V62H90.901V43.5H88.901ZM88.901 62C88.901 66.5111 88.3244 70.2493 86.7577 73.363C85.2035 76.452 82.628 79.0185 78.4538 81.1056L79.3483 82.8944C83.8408 80.6482 86.7652 77.798 88.5443 74.262C90.311 70.7507 90.901 66.6556 90.901 62H88.901ZM77.901 82V84H79.901V82H77.901ZM50.2344 37H47.0677V39H50.2344V37ZM46.0677 38V72.6667H48.0677V38H46.0677ZM47.0677 73.6667H50.401V71.6667H47.0677V73.6667ZM50.401 73.6667C52.6213 73.6667 54.3404 73.2966 55.4342 72.0876C56.5029 70.9064 56.7344 69.1751 56.7344 67.1667H54.7344C54.7344 69.1583 54.4659 70.1769 53.9512 70.7458C53.4617 71.2867 52.5141 71.6667 50.401 71.6667V73.6667ZM56.7344 67.1667V44H54.7344V67.1667H56.7344ZM56.7344 44C56.7344 41.8099 56.4559 39.9745 55.364 38.7188C54.237 37.4228 52.4818 37 50.2344 37V39C52.3202 39 53.3151 39.4105 53.8548 40.0312C54.4295 40.6921 54.7344 41.8567 54.7344 44H56.7344ZM57.0677 126.5V101.333H55.0677V126.5H57.0677ZM57.0677 101.333C57.0677 99.3441 56.8815 97.5867 55.8833 96.3668C54.8359 95.0866 53.1417 94.6667 50.901 94.6667V96.6667C52.9937 96.6667 53.8828 97.0801 54.3354 97.6332C54.8373 98.2466 55.0677 99.3226 55.0677 101.333H57.0677ZM50.901 94.6667H47.0677V96.6667H50.901V94.6667ZM46.0677 95.6667V132.333H48.0677V95.6667H46.0677ZM47.0677 133.333H50.7344V131.333H47.0677V133.333ZM50.7344 133.333C52.8838 133.333 54.6009 132.958 55.7119 131.705C56.7906 130.488 57.0677 128.687 57.0677 126.5H55.0677C55.0677 128.647 54.7615 129.762 54.2152 130.378C53.7012 130.958 52.7517 131.333 50.7344 131.333V133.333ZM100.62 8.66666V7.66666H99.6198V8.66666H100.62ZM135.786 8.66666H136.786V7.66666H135.786V8.66666ZM144.453 8.66666V7.66666H143.453V8.66666H144.453ZM179.62 8.66666H180.62V7.66666H179.62V8.66666ZM140.12 162.833C128.211 162.833 118.607 160.636 111.992 155.383C105.424 150.169 101.62 141.794 101.62 129H99.6198C99.6198 142.206 103.566 151.248 110.748 156.95C117.882 162.614 128.029 164.833 140.12 164.833V162.833ZM101.62 129V8.66666H99.6198V129H101.62ZM100.62 9.66666H135.786V7.66666H100.62V9.66666ZM134.786 8.66666V128.833H136.786V8.66666H134.786ZM134.786 128.833C134.786 131.115 135.265 132.817 136.265 133.953C137.29 135.115 138.695 135.5 140.12 135.5V133.5C139.044 133.5 138.283 133.218 137.766 132.631C137.224 132.016 136.786 130.885 136.786 128.833H134.786ZM140.12 135.5C141.476 135.5 142.867 135.108 143.903 133.963C144.923 132.835 145.453 131.136 145.453 128.833H143.453C143.453 130.864 142.983 131.998 142.42 132.621C141.873 133.226 141.097 133.5 140.12 133.5V135.5ZM145.453 128.833V8.66666H143.453V128.833H145.453ZM144.453 9.66666H179.62V7.66666H144.453V9.66666ZM178.62 8.66666V129H180.62V8.66666H178.62ZM178.62 129C178.62 141.79 174.777 150.166 168.187 155.383C161.549 160.636 151.944 162.833 140.12 162.833V164.833C152.129 164.833 162.274 162.614 169.428 156.951C176.63 151.25 180.62 142.21 180.62 129H178.62ZM262.448 8.66666H263.448V7.66666H262.448V8.66666ZM262.448 38V39H263.448V38H262.448ZM242.615 38V37H241.615V38H242.615ZM242.615 162V163H243.615V162H242.615ZM207.615 162H206.615V163H207.615V162ZM207.615 38H208.615V37H207.615V38ZM187.781 38H186.781V39H187.781V38ZM187.781 8.66666V7.66666H186.781V8.66666H187.781ZM261.448 8.66666V38H263.448V8.66666H261.448ZM262.448 37H242.615V39H262.448V37ZM241.615 38V162H243.615V38H241.615ZM242.615 161H207.615V163H242.615V161ZM208.615 162V38H206.615V162H208.615ZM207.615 37H187.781V39H207.615V37ZM188.781 38V8.66666H186.781V38H188.781ZM187.781 9.66666H262.448V7.66666H187.781V9.66666ZM342.378 8.66666H343.378V7.66666H342.378V8.66666ZM342.378 38V39H343.378V38H342.378ZM322.544 38V37H321.544V38H322.544ZM322.544 162V163H323.544V162H322.544ZM287.544 162H286.544V163H287.544V162ZM287.544 38H288.544V37H287.544V38ZM267.711 38H266.711V39H267.711V38ZM267.711 8.66666V7.66666H266.711V8.66666H267.711ZM341.378 8.66666V38H343.378V8.66666H341.378ZM342.378 37H322.544V39H342.378V37ZM321.544 38V162H323.544V38H321.544ZM322.544 161H287.544V163H322.544V161ZM288.544 162V38H286.544V162H288.544ZM287.544 37H267.711V39H287.544V37ZM268.711 38V8.66666H266.711V38H268.711ZM267.711 9.66666H342.378V7.66666H267.711V9.66666ZM405.898 38V39H406.898V38H405.898ZM385.732 38V37H384.732V38H385.732ZM385.732 70.3333H384.732V71.3333H385.732V70.3333ZM405.398 70.3333H406.398V69.3333H405.398V70.3333ZM405.398 99.3333V100.333H406.398V99.3333H405.398ZM385.732 99.3333V98.3333H384.732V99.3333H385.732ZM385.732 132.667H384.732V133.667H385.732V132.667ZM405.898 132.667H406.898V131.667H405.898V132.667ZM405.898 162V163H406.898V162H405.898ZM350.565 162H349.565V163H350.565V162ZM350.565 8.66666V7.66666H349.565V8.66666H350.565ZM405.898 8.66666H406.898V7.66666H405.898V8.66666ZM405.898 37H385.732V39H405.898V37ZM384.732 38V70.3333H386.732V38H384.732ZM385.732 71.3333H405.398V69.3333H385.732V71.3333ZM404.398 70.3333V99.3333H406.398V70.3333H404.398ZM405.398 98.3333H385.732V100.333H405.398V98.3333ZM384.732 99.3333V132.667H386.732V99.3333H384.732ZM385.732 133.667H405.898V131.667H385.732V133.667ZM404.898 132.667V162H406.898V132.667H404.898ZM405.898 161H350.565V163H405.898V161ZM351.565 162V8.66666H349.565V162H351.565ZM350.565 9.66666H405.898V7.66666H350.565V9.66666ZM404.898 8.66666V38H406.898V8.66666H404.898ZM496.312 162V163H497.576L497.286 161.771L496.312 162ZM465.146 162L464.168 162.211L464.339 163H465.146V162ZM455.812 118.833L456.79 118.622L456.619 117.833H455.812V118.833ZM449.646 118.833V117.833H448.646V118.833H449.646ZM449.646 162V163H450.646V162H449.646ZM414.479 162H413.479V163H414.479V162ZM414.479 8.66666V7.66666H413.479V8.66666H414.479ZM483.979 109.667L483.306 108.927L482.871 109.323L483.006 109.896L483.979 109.667ZM449.646 37.8333V36.8333H448.646V37.8333H449.646ZM449.646 94H448.646V95H449.646V94ZM496.312 161H465.146V163H496.312V161ZM466.123 161.789L456.79 118.622L454.835 119.045L464.168 162.211L466.123 161.789ZM455.812 117.833H452.646V119.833H455.812V117.833ZM452.646 117.833H449.646V119.833H452.646V117.833ZM448.646 118.833V162H450.646V118.833H448.646ZM449.646 161H414.479V163H449.646V161ZM415.479 162V8.66666H413.479V162H415.479ZM414.479 9.66666H461.146V7.66666H414.479V9.66666ZM461.146 9.66666C474.257 9.66666 481.81 12.0044 486.174 17.1664C490.581 22.3805 491.979 30.7386 491.979 43.5H493.979C493.979 30.7614 492.627 21.7028 487.701 15.8753C482.731 9.99561 474.368 7.66666 461.146 7.66666V9.66666ZM491.979 43.5V86.1667H493.979V43.5H491.979ZM491.979 86.1667C491.979 96.9351 488.564 104.148 483.306 108.927L484.652 110.407C490.395 105.186 493.979 97.3982 493.979 86.1667H491.979ZM483.006 109.896L495.339 162.229L497.286 161.771L484.953 109.437L483.006 109.896ZM448.646 37.8333V94H450.646V37.8333H448.646ZM449.646 95H453.146V93H449.646V95ZM453.146 95C455.323 95 457.057 94.5716 458.198 93.3193C459.316 92.0917 459.646 90.3038 459.646 88.1667H457.646C457.646 90.1962 457.309 91.325 456.719 91.9723C456.152 92.5951 455.135 93 453.146 93V95ZM459.646 88.1667V43.8333H457.646V88.1667H459.646ZM459.646 43.8333C459.646 41.6202 459.318 39.7923 458.205 38.543C457.063 37.2617 455.323 36.8333 453.146 36.8333V38.8333C455.135 38.8333 456.146 39.2383 456.712 39.8737C457.307 40.541 457.646 41.7132 457.646 43.8333H459.646ZM453.146 36.8333H449.646V38.8333H453.146V36.8333ZM559.703 38V39H560.703V38H559.703ZM539.703 38V37H538.703V38H539.703ZM539.703 72H538.703V73H539.703V72ZM559.703 72H560.703V71H559.703V72ZM559.703 101V102H560.703V101H559.703ZM539.703 101V100H538.703V101H539.703ZM539.703 162V163H540.703V162H539.703ZM504.37 162H503.37V163H504.37V162ZM504.37 8.66666V7.66666H503.37V8.66666H504.37ZM559.703 8.66666H560.703V7.66666H559.703V8.66666ZM559.703 37H539.703V39H559.703V37ZM538.703 38V72H540.703V38H538.703ZM539.703 73H559.703V71H539.703V73ZM558.703 72V101H560.703V72H558.703ZM559.703 100H539.703V102H559.703V100ZM538.703 101V162H540.703V101H538.703ZM539.703 161H504.37V163H539.703V161ZM505.37 162V8.66666H503.37V162H505.37ZM504.37 9.66666H559.703V7.66666H504.37V9.66666ZM558.703 8.66666V38H560.703V8.66666H558.703ZM603.451 132.667H602.451V133.667H603.451V132.667ZM624.451 132.667H625.451V131.667H624.451V132.667ZM624.451 162V163H625.451V162H624.451ZM568.284 162H567.284V163H568.284V162ZM568.284 8.66666V7.66666H567.284V8.66666H568.284ZM603.451 8.66666H604.451V7.66666H603.451V8.66666ZM603.451 133.667H624.451V131.667H603.451V133.667ZM623.451 132.667V162H625.451V132.667H623.451ZM624.451 161H568.284V163H624.451V161ZM569.284 162V8.66666H567.284V162H569.284ZM568.284 9.66666H603.451V7.66666H568.284V9.66666ZM602.451 8.66666V132.667H604.451V8.66666H602.451ZM672.049 8.66666V7.66666H671.202L671.063 8.50271L672.049 8.66666ZM705.883 8.66666L706.852 8.91416L707.17 7.66666H705.883V8.66666ZM678.549 115.667L677.581 115.419L677.549 115.541V115.667H678.549ZM678.549 162V163H679.549V162H678.549ZM643.883 162H642.883V163H643.883V162ZM643.883 115.667H644.883V115.541L644.852 115.419L643.883 115.667ZM616.549 8.66666V7.66666H615.262L615.581 8.91416L616.549 8.66666ZM650.383 8.66666L651.369 8.50271L651.23 7.66666H650.383V8.66666ZM660.216 67.8333L659.23 67.9973L659.369 68.8333H660.216V67.8333ZM662.216 67.8333V68.8333H663.064L663.203 67.9973L662.216 67.8333ZM672.049 9.66666H705.883V7.66666H672.049V9.66666ZM704.914 8.41915L677.581 115.419L679.518 115.914L706.852 8.91416L704.914 8.41915ZM677.549 115.667V162H679.549V115.667H677.549ZM678.549 161H643.883V163H678.549V161ZM644.883 162V115.667H642.883V162H644.883ZM644.852 115.419L617.518 8.41915L615.581 8.91416L642.914 115.914L644.852 115.419ZM616.549 9.66666H650.383V7.66666H616.549V9.66666ZM649.396 8.83061L659.23 67.9973L661.203 67.6694L651.369 8.50271L649.396 8.83061ZM660.216 68.8333H662.216V66.8333H660.216V68.8333ZM663.203 67.9973L673.036 8.83061L671.063 8.50271L661.23 67.6694L663.203 67.9973ZM796.609 38V39H797.609V38H796.609ZM776.443 38V37H775.443V38H776.443ZM776.443 70.3333H775.443V71.3333H776.443V70.3333ZM796.109 70.3333H797.109V69.3333H796.109V70.3333ZM796.109 99.3333V100.333H797.109V99.3333H796.109ZM776.443 99.3333V98.3333H775.443V99.3333H776.443ZM776.443 132.667H775.443V133.667H776.443V132.667ZM796.609 132.667H797.609V131.667H796.609V132.667ZM796.609 162V163H797.609V162H796.609ZM741.276 162H740.276V163H741.276V162ZM741.276 8.66666V7.66666H740.276V8.66666H741.276ZM796.609 8.66666H797.609V7.66666H796.609V8.66666ZM796.609 37H776.443V39H796.609V37ZM775.443 38V70.3333H777.443V38H775.443ZM776.443 71.3333H796.109V69.3333H776.443V71.3333ZM795.109 70.3333V99.3333H797.109V70.3333H795.109ZM796.109 98.3333H776.443V100.333H796.109V98.3333ZM775.443 99.3333V132.667H777.443V99.3333H775.443ZM776.443 133.667H796.609V131.667H776.443V133.667ZM795.609 132.667V162H797.609V132.667H795.609ZM796.609 161H741.276V163H796.609V161ZM742.276 162V8.66666H740.276V162H742.276ZM741.276 9.66666H796.609V7.66666H741.276V9.66666ZM795.609 8.66666V38H797.609V8.66666H795.609ZM860.523 38V39H861.523V38H860.523ZM840.523 38V37H839.523V38H840.523ZM840.523 72H839.523V73H840.523V72ZM860.523 72H861.523V71H860.523V72ZM860.523 101V102H861.523V101H860.523ZM840.523 101V100H839.523V101H840.523ZM840.523 162V163H841.523V162H840.523ZM805.19 162H804.19V163H805.19V162ZM805.19 8.66666V7.66666H804.19V8.66666H805.19ZM860.523 8.66666H861.523V7.66666H860.523V8.66666ZM860.523 37H840.523V39H860.523V37ZM839.523 38V72H841.523V38H839.523ZM840.523 73H860.523V71H840.523V73ZM859.523 72V101H861.523V72H859.523ZM860.523 100H840.523V102H860.523V100ZM839.523 101V162H841.523V101H839.523ZM840.523 161H805.19V163H840.523V161ZM806.19 162V8.66666H804.19V162H806.19ZM805.19 9.66666H860.523V7.66666H805.19V9.66666ZM859.523 8.66666V38H861.523V8.66666H859.523ZM924.438 38V39H925.438V38H924.438ZM904.438 38V37H903.438V38H904.438ZM904.438 72H903.438V73H904.438V72ZM924.438 72H925.438V71H924.438V72ZM924.438 101V102H925.438V101H924.438ZM904.438 101V100H903.438V101H904.438ZM904.438 162V163H905.438V162H904.438ZM869.104 162H868.104V163H869.104V162ZM869.104 8.66666V7.66666H868.104V8.66666H869.104ZM924.438 8.66666H925.438V7.66666H924.438V8.66666ZM924.438 37H904.438V39H924.438V37ZM903.438 38V72H905.438V38H903.438ZM904.438 73H924.438V71H904.438V73ZM923.438 72V101H925.438V72H923.438ZM924.438 100H904.438V102H924.438V100ZM903.438 101V162H905.438V101H903.438ZM904.438 161H869.104V163H904.438V161ZM870.104 162V8.66666H868.104V162H870.104ZM869.104 9.66666H924.438V7.66666H869.104V9.66666ZM923.438 8.66666V38H925.438V8.66666H923.438ZM988.352 38V39H989.352V38H988.352ZM968.185 38V37H967.185V38H968.185ZM968.185 70.3333H967.185V71.3333H968.185V70.3333ZM987.852 70.3333H988.852V69.3333H987.852V70.3333ZM987.852 99.3333V100.333H988.852V99.3333H987.852ZM968.185 99.3333V98.3333H967.185V99.3333H968.185ZM968.185 132.667H967.185V133.667H968.185V132.667ZM988.352 132.667H989.352V131.667H988.352V132.667ZM988.352 162V163H989.352V162H988.352ZM933.018 162H932.018V163H933.018V162ZM933.018 8.66666V7.66666H932.018V8.66666H933.018ZM988.352 8.66666H989.352V7.66666H988.352V8.66666ZM988.352 37H968.185V39H988.352V37ZM967.185 38V70.3333H969.185V38H967.185ZM968.185 71.3333H987.852V69.3333H968.185V71.3333ZM986.852 70.3333V99.3333H988.852V70.3333H986.852ZM987.852 98.3333H968.185V100.333H987.852V98.3333ZM967.185 99.3333V132.667H969.185V99.3333H967.185ZM968.185 133.667H988.352V131.667H968.185V133.667ZM987.352 132.667V162H989.352V132.667H987.352ZM988.352 161H933.018V163H988.352V161ZM934.018 162V8.66666H932.018V162H934.018ZM933.018 9.66666H988.352V7.66666H933.018V9.66666ZM987.352 8.66666V38H989.352V8.66666H987.352ZM1075.15 80.3333V81.3333H1076.15V80.3333H1075.15ZM1039.98 80.3333H1038.98V81.3333H1039.98V80.3333ZM1039.98 90.3333V89.3333H1038.98V90.3333H1039.98ZM1075.15 90.3333H1076.15V89.3333H1075.15V90.3333ZM1035.65 163.167C1023.74 163.167 1014.14 161.01 1007.52 155.778C1000.96 150.585 997.151 142.212 997.151 129.333H995.151C995.151 142.621 999.096 151.665 1006.28 157.347C1013.42 162.99 1023.56 165.167 1035.65 165.167V163.167ZM997.151 129.333V41.6667H995.151V129.333H997.151ZM997.151 41.6667C997.151 28.8728 1000.95 20.4978 1007.52 15.2832C1014.14 10.0308 1023.74 7.83333 1035.65 7.83333V5.83333C1023.56 5.83333 1013.41 8.05249 1006.28 13.7168C999.097 19.4189 995.151 28.4605 995.151 41.6667H997.151ZM1035.65 7.83333C1047.48 7.83333 1057.08 10.0303 1063.72 15.2841C1070.31 20.5002 1074.15 28.8762 1074.15 41.6667H1076.15C1076.15 28.4571 1072.16 19.4164 1064.96 13.7159C1057.8 8.05305 1047.66 5.83333 1035.65 5.83333V7.83333ZM1074.15 41.6667V80.3333H1076.15V41.6667H1074.15ZM1075.15 79.3333H1039.98V81.3333H1075.15V79.3333ZM1040.98 80.3333V41.8333H1038.98V80.3333H1040.98ZM1040.98 41.8333C1040.98 39.5306 1040.45 37.8318 1039.43 36.7041C1038.4 35.5591 1037.01 35.1667 1035.65 35.1667V37.1667C1036.63 37.1667 1037.4 37.4409 1037.95 38.0459C1038.51 38.6682 1038.98 39.8027 1038.98 41.8333H1040.98ZM1035.65 35.1667C1034.23 35.1667 1032.82 35.5512 1031.8 36.714C1030.8 37.8492 1030.32 39.5517 1030.32 41.8333H1032.32C1032.32 39.7817 1032.76 38.6508 1033.3 38.036C1033.81 37.4488 1034.58 37.1667 1035.65 37.1667V35.1667ZM1030.32 41.8333V129.167H1032.32V41.8333H1030.32ZM1030.32 129.167C1030.32 131.52 1030.79 133.235 1031.8 134.357C1032.84 135.507 1034.26 135.833 1035.65 135.833V133.833C1034.54 133.833 1033.79 133.576 1033.29 133.018C1032.76 132.431 1032.32 131.313 1032.32 129.167H1030.32ZM1035.65 135.833C1036.98 135.833 1038.38 135.5 1039.43 134.367C1040.46 133.252 1040.98 131.541 1040.98 129.167H1038.98C1038.98 131.292 1038.51 132.414 1037.96 133.008C1037.43 133.583 1036.66 133.833 1035.65 133.833V135.833ZM1040.98 129.167V90.3333H1038.98V129.167H1040.98ZM1039.98 91.3333H1075.15V89.3333H1039.98V91.3333ZM1074.15 90.3333V129.333H1076.15V90.3333H1074.15ZM1074.15 129.333C1074.15 142.209 1070.31 150.583 1063.72 155.777C1057.08 161.01 1047.48 163.167 1035.65 163.167V165.167C1047.66 165.167 1057.8 162.99 1064.96 157.348C1072.16 151.667 1076.15 142.624 1076.15 129.333H1074.15ZM1155.24 8.66666H1156.24V7.66666H1155.24V8.66666ZM1155.24 38V39H1156.24V38H1155.24ZM1135.41 38V37H1134.41V38H1135.41ZM1135.41 162V163H1136.41V162H1135.41ZM1100.41 162H1099.41V163H1100.41V162ZM1100.41 38H1101.41V37H1100.41V38ZM1080.58 38H1079.58V39H1080.58V38ZM1080.58 8.66666V7.66666H1079.58V8.66666H1080.58ZM1154.24 8.66666V38H1156.24V8.66666H1154.24ZM1155.24 37H1135.41V39H1155.24V37ZM1134.41 38V162H1136.41V38H1134.41ZM1135.41 161H1100.41V163H1135.41V161ZM1101.41 162V38H1099.41V162H1101.41ZM1100.41 37H1080.58V39H1100.41V37ZM1081.58 38V8.66666H1079.58V38H1081.58ZM1080.58 9.66666H1155.24V7.66666H1080.58V9.66666Z" fill="#E31C25"/>
<path d="M73.901 82C82.7344 86.8333 86.2344 94 86.2344 104.333V125.167C86.2344 150.667 80.7344 160 54.401 160H6.90104V6.66666H54.0677C79.401 6.66666 84.901 16 84.901 41.5V60C84.901 69.1667 82.5677 75.6667 73.901 80V82ZM45.2344 36H42.0677V70.6667H45.401C49.7344 70.6667 50.7344 69.1667 50.7344 65.1667V42C50.7344 37.6667 49.5677 36 45.2344 36ZM51.0677 124.5V99.3333C51.0677 95.3333 50.2344 93.6667 45.901 93.6667H42.0677V130.333H45.7344C49.901 130.333 51.0677 128.833 51.0677 124.5ZM135.12 161.833C111.12 161.833 95.6198 153 95.6198 127V6.66666H130.786V126.833C130.786 131.167 132.62 132.5 135.12 132.5C137.453 132.5 139.453 131.167 139.453 126.833V6.66666H174.62V127C174.62 153 158.953 161.833 135.12 161.833ZM257.448 6.66666V36H237.615V160H202.615V36H182.781V6.66666H257.448ZM337.378 6.66666V36H317.544V160H282.544V36H262.711V6.66666H337.378ZM400.898 36H380.732V68.3333H400.398V97.3333H380.732V130.667H400.898V160H345.565V6.66666H400.898V36ZM491.313 160H460.146L450.813 116.833H447.646H444.646V160H409.479V6.66666H456.146C482.479 6.66666 487.979 16 487.979 41.5V84.1667C487.979 95.1667 484.479 102.667 478.979 107.667L491.313 160ZM444.646 35.8333V92H448.146C452.313 92 453.646 90.3333 453.646 86.1667V41.8333C453.646 37.5 452.313 35.8333 448.146 35.8333H444.646ZM554.703 36H534.703V70H554.703V99H534.703V160H499.37V6.66666H554.703V36ZM598.451 130.667H619.451V160H563.284V6.66666H598.451V130.667ZM667.049 6.66666H700.883L673.549 113.667V160H638.883V113.667L611.549 6.66666H645.383L655.216 65.8333H657.216L667.049 6.66666ZM791.609 36H771.443V68.3333H791.109V97.3333H771.443V130.667H791.609V160H736.276V6.66666H791.609V36ZM855.523 36H835.523V70H855.523V99H835.523V160H800.19V6.66666H855.523V36ZM919.438 36H899.438V70H919.438V99H899.438V160H864.104V6.66666H919.438V36ZM983.352 36H963.185V68.3333H982.852V97.3333H963.185V130.667H983.352V160H928.018V6.66666H983.352V36ZM1030.65 162.167C1006.65 162.167 991.151 153.5 991.151 127.333V39.6667C991.151 13.6667 1006.65 4.83333 1030.65 4.83333C1054.48 4.83333 1070.15 13.6667 1070.15 39.6667V78.3333H1034.98V39.8333C1034.98 35.5 1032.98 34.1667 1030.65 34.1667C1028.15 34.1667 1026.32 35.5 1026.32 39.8333V127.167C1026.32 131.667 1028.15 132.833 1030.65 132.833C1032.98 132.833 1034.98 131.667 1034.98 127.167V88.3333H1070.15V127.333C1070.15 153.5 1054.48 162.167 1030.65 162.167ZM1150.24 6.66666V36H1130.41V160H1095.41V36H1075.58V6.66666H1150.24Z" fill="#FAFAFA"/>
<path d="M70.901 79H69.901V79.5927L70.421 79.8773L70.901 79ZM3.90104 157H2.90104V158H3.90104V157ZM3.90104 3.66666V2.66666H2.90104V3.66666H3.90104ZM70.901 77L70.4538 76.1056L69.901 76.382V77H70.901ZM39.0677 33V32H38.0677V33H39.0677ZM39.0677 67.6667H38.0677V68.6667H39.0677V67.6667ZM39.0677 90.6667V89.6667H38.0677V90.6667H39.0677ZM39.0677 127.333H38.0677V128.333H39.0677V127.333ZM70.421 79.8773C74.6963 82.2165 77.6259 85.0871 79.4991 88.5771C81.3776 92.0771 82.2344 96.2762 82.2344 101.333H84.2344C84.2344 96.0571 83.3411 91.5062 81.2613 87.6313C79.1762 83.7463 75.9391 80.6168 71.3811 78.1227L70.421 79.8773ZM82.2344 101.333V122.167H84.2344V101.333H82.2344ZM82.2344 122.167C82.2344 134.928 80.8364 143.286 76.429 148.5C72.0656 153.662 64.5121 156 51.401 156V158C64.6233 158 72.9865 155.671 77.9564 149.791C82.8824 143.964 84.2344 134.905 84.2344 122.167H82.2344ZM51.401 156H3.90104V158H51.401V156ZM4.90104 157V3.66666H2.90104V157H4.90104ZM3.90104 4.66666H51.0677V2.66666H3.90104V4.66666ZM51.0677 4.66666C63.6689 4.66666 70.9707 7.00035 75.2121 12.1561C79.5041 17.3735 80.901 25.7402 80.901 38.5H82.901C82.901 25.7597 81.548 16.7099 76.7566 10.8855C71.9147 4.99964 63.7998 2.66666 51.0677 2.66666V4.66666ZM80.901 38.5V57H82.901V38.5H80.901ZM80.901 57C80.901 61.5111 80.3244 65.2493 78.7577 68.363C77.2035 71.452 74.628 74.0185 70.4538 76.1056L71.3483 77.8944C75.8408 75.6482 78.7652 72.798 80.5443 69.262C82.311 65.7507 82.901 61.6556 82.901 57H80.901ZM69.901 77V79H71.901V77H69.901ZM42.2344 32H39.0677V34H42.2344V32ZM38.0677 33V67.6667H40.0677V33H38.0677ZM39.0677 68.6667H42.401V66.6667H39.0677V68.6667ZM42.401 68.6667C44.6213 68.6667 46.3404 68.2966 47.4342 67.0876C48.5029 65.9064 48.7344 64.1751 48.7344 62.1667H46.7344C46.7344 64.1583 46.4659 65.1769 45.9512 65.7458C45.4617 66.2867 44.5141 66.6667 42.401 66.6667V68.6667ZM48.7344 62.1667V39H46.7344V62.1667H48.7344ZM48.7344 39C48.7344 36.8099 48.4559 34.9745 47.364 33.7188C46.237 32.4228 44.4818 32 42.2344 32V34C44.3202 34 45.3151 34.4105 45.8548 35.0312C46.4295 35.6921 46.7344 36.8567 46.7344 39H48.7344ZM49.0677 121.5V96.3333H47.0677V121.5H49.0677ZM49.0677 96.3333C49.0677 94.3441 48.8815 92.5867 47.8833 91.3668C46.8359 90.0866 45.1417 89.6667 42.901 89.6667V91.6667C44.9937 91.6667 45.8828 92.0801 46.3354 92.6332C46.8373 93.2466 47.0677 94.3226 47.0677 96.3333H49.0677ZM42.901 89.6667H39.0677V91.6667H42.901V89.6667ZM38.0677 90.6667V127.333H40.0677V90.6667H38.0677ZM39.0677 128.333H42.7344V126.333H39.0677V128.333ZM42.7344 128.333C44.8838 128.333 46.6009 127.958 47.7119 126.705C48.7906 125.488 49.0677 123.687 49.0677 121.5H47.0677C47.0677 123.647 46.7615 124.762 46.2152 125.378C45.7012 125.958 44.7517 126.333 42.7344 126.333V128.333ZM92.6198 3.66666V2.66666H91.6198V3.66666H92.6198ZM127.786 3.66666H128.786V2.66666H127.786V3.66666ZM136.453 3.66666V2.66666H135.453V3.66666H136.453ZM171.62 3.66666H172.62V2.66666H171.62V3.66666ZM132.12 157.833C120.211 157.833 110.607 155.636 103.992 150.383C97.4236 145.169 93.6198 136.794 93.6198 124H91.6198C91.6198 137.206 95.566 146.248 102.748 151.95C109.882 157.614 120.029 159.833 132.12 159.833V157.833ZM93.6198 124V3.66666H91.6198V124H93.6198ZM92.6198 4.66666H127.786V2.66666H92.6198V4.66666ZM126.786 3.66666V123.833H128.786V3.66666H126.786ZM126.786 123.833C126.786 126.115 127.265 127.817 128.265 128.953C129.29 130.115 130.695 130.5 132.12 130.5V128.5C131.044 128.5 130.283 128.218 129.766 127.631C129.224 127.016 128.786 125.885 128.786 123.833H126.786ZM132.12 130.5C133.476 130.5 134.867 130.108 135.903 128.963C136.923 127.835 137.453 126.136 137.453 123.833H135.453C135.453 125.864 134.983 126.998 134.42 127.621C133.873 128.226 133.097 128.5 132.12 128.5V130.5ZM137.453 123.833V3.66666H135.453V123.833H137.453ZM136.453 4.66666H171.62V2.66666H136.453V4.66666ZM170.62 3.66666V124H172.62V3.66666H170.62ZM170.62 124C170.62 136.79 166.777 145.166 160.187 150.383C153.549 155.636 143.944 157.833 132.12 157.833V159.833C144.129 159.833 154.274 157.614 161.428 151.951C168.63 146.25 172.62 137.21 172.62 124H170.62ZM254.448 3.66666H255.448V2.66666H254.448V3.66666ZM254.448 33V34H255.448V33H254.448ZM234.615 33V32H233.615V33H234.615ZM234.615 157V158H235.615V157H234.615ZM199.615 157H198.615V158H199.615V157ZM199.615 33H200.615V32H199.615V33ZM179.781 33H178.781V34H179.781V33ZM179.781 3.66666V2.66666H178.781V3.66666H179.781ZM253.448 3.66666V33H255.448V3.66666H253.448ZM254.448 32H234.615V34H254.448V32ZM233.615 33V157H235.615V33H233.615ZM234.615 156H199.615V158H234.615V156ZM200.615 157V33H198.615V157H200.615ZM199.615 32H179.781V34H199.615V32ZM180.781 33V3.66666H178.781V33H180.781ZM179.781 4.66666H254.448V2.66666H179.781V4.66666ZM334.378 3.66666H335.378V2.66666H334.378V3.66666ZM334.378 33V34H335.378V33H334.378ZM314.544 33V32H313.544V33H314.544ZM314.544 157V158H315.544V157H314.544ZM279.544 157H278.544V158H279.544V157ZM279.544 33H280.544V32H279.544V33ZM259.711 33H258.711V34H259.711V33ZM259.711 3.66666V2.66666H258.711V3.66666H259.711ZM333.378 3.66666V33H335.378V3.66666H333.378ZM334.378 32H314.544V34H334.378V32ZM313.544 33V157H315.544V33H313.544ZM314.544 156H279.544V158H314.544V156ZM280.544 157V33H278.544V157H280.544ZM279.544 32H259.711V34H279.544V32ZM260.711 33V3.66666H258.711V33H260.711ZM259.711 4.66666H334.378V2.66666H259.711V4.66666ZM397.898 33V34H398.898V33H397.898ZM377.732 33V32H376.732V33H377.732ZM377.732 65.3333H376.732V66.3333H377.732V65.3333ZM397.398 65.3333H398.398V64.3333H397.398V65.3333ZM397.398 94.3333V95.3333H398.398V94.3333H397.398ZM377.732 94.3333V93.3333H376.732V94.3333H377.732ZM377.732 127.667H376.732V128.667H377.732V127.667ZM397.898 127.667H398.898V126.667H397.898V127.667ZM397.898 157V158H398.898V157H397.898ZM342.565 157H341.565V158H342.565V157ZM342.565 3.66666V2.66666H341.565V3.66666H342.565ZM397.898 3.66666H398.898V2.66666H397.898V3.66666ZM397.898 32H377.732V34H397.898V32ZM376.732 33V65.3333H378.732V33H376.732ZM377.732 66.3333H397.398V64.3333H377.732V66.3333ZM396.398 65.3333V94.3333H398.398V65.3333H396.398ZM397.398 93.3333H377.732V95.3333H397.398V93.3333ZM376.732 94.3333V127.667H378.732V94.3333H376.732ZM377.732 128.667H397.898V126.667H377.732V128.667ZM396.898 127.667V157H398.898V127.667H396.898ZM397.898 156H342.565V158H397.898V156ZM343.565 157V3.66666H341.565V157H343.565ZM342.565 4.66666H397.898V2.66666H342.565V4.66666ZM396.898 3.66666V33H398.898V3.66666H396.898ZM488.312 157V158H489.576L489.286 156.771L488.312 157ZM457.146 157L456.168 157.211L456.339 158H457.146V157ZM447.812 113.833L448.79 113.622L448.619 112.833H447.812V113.833ZM441.646 113.833V112.833H440.646V113.833H441.646ZM441.646 157V158H442.646V157H441.646ZM406.479 157H405.479V158H406.479V157ZM406.479 3.66666V2.66666H405.479V3.66666H406.479ZM475.979 104.667L475.306 103.927L474.871 104.323L475.006 104.896L475.979 104.667ZM441.646 32.8333V31.8333H440.646V32.8333H441.646ZM441.646 89H440.646V90H441.646V89ZM488.312 156H457.146V158H488.312V156ZM458.123 156.789L448.79 113.622L446.835 114.045L456.168 157.211L458.123 156.789ZM447.812 112.833H444.646V114.833H447.812V112.833ZM444.646 112.833H441.646V114.833H444.646V112.833ZM440.646 113.833V157H442.646V113.833H440.646ZM441.646 156H406.479V158H441.646V156ZM407.479 157V3.66666H405.479V157H407.479ZM406.479 4.66666H453.146V2.66666H406.479V4.66666ZM453.146 4.66666C466.257 4.66666 473.81 7.00437 478.174 12.1664C482.581 17.3805 483.979 25.7386 483.979 38.5H485.979C485.979 25.7614 484.627 16.7028 479.701 10.8753C474.731 4.99561 466.368 2.66666 453.146 2.66666V4.66666ZM483.979 38.5V81.1667H485.979V38.5H483.979ZM483.979 81.1667C483.979 91.9351 480.564 99.1476 475.306 103.927L476.652 105.407C482.395 100.186 485.979 92.3982 485.979 81.1667H483.979ZM475.006 104.896L487.339 157.229L489.286 156.771L476.953 104.437L475.006 104.896ZM440.646 32.8333V89H442.646V32.8333H440.646ZM441.646 90H445.146V88H441.646V90ZM445.146 90C447.323 90 449.057 89.5716 450.198 88.3193C451.316 87.0917 451.646 85.3038 451.646 83.1667H449.646C449.646 85.1962 449.309 86.325 448.719 86.9723C448.152 87.5951 447.135 88 445.146 88V90ZM451.646 83.1667V38.8333H449.646V83.1667H451.646ZM451.646 38.8333C451.646 36.6202 451.318 34.7923 450.205 33.543C449.063 32.2617 447.323 31.8333 445.146 31.8333V33.8333C447.135 33.8333 448.146 34.2383 448.712 34.8737C449.307 35.541 449.646 36.7132 449.646 38.8333H451.646ZM445.146 31.8333H441.646V33.8333H445.146V31.8333ZM551.703 33V34H552.703V33H551.703ZM531.703 33V32H530.703V33H531.703ZM531.703 67H530.703V68H531.703V67ZM551.703 67H552.703V66H551.703V67ZM551.703 96V97H552.703V96H551.703ZM531.703 96V95H530.703V96H531.703ZM531.703 157V158H532.703V157H531.703ZM496.37 157H495.37V158H496.37V157ZM496.37 3.66666V2.66666H495.37V3.66666H496.37ZM551.703 3.66666H552.703V2.66666H551.703V3.66666ZM551.703 32H531.703V34H551.703V32ZM530.703 33V67H532.703V33H530.703ZM531.703 68H551.703V66H531.703V68ZM550.703 67V96H552.703V67H550.703ZM551.703 95H531.703V97H551.703V95ZM530.703 96V157H532.703V96H530.703ZM531.703 156H496.37V158H531.703V156ZM497.37 157V3.66666H495.37V157H497.37ZM496.37 4.66666H551.703V2.66666H496.37V4.66666ZM550.703 3.66666V33H552.703V3.66666H550.703ZM595.451 127.667H594.451V128.667H595.451V127.667ZM616.451 127.667H617.451V126.667H616.451V127.667ZM616.451 157V158H617.451V157H616.451ZM560.284 157H559.284V158H560.284V157ZM560.284 3.66666V2.66666H559.284V3.66666H560.284ZM595.451 3.66666H596.451V2.66666H595.451V3.66666ZM595.451 128.667H616.451V126.667H595.451V128.667ZM615.451 127.667V157H617.451V127.667H615.451ZM616.451 156H560.284V158H616.451V156ZM561.284 157V3.66666H559.284V157H561.284ZM560.284 4.66666H595.451V2.66666H560.284V4.66666ZM594.451 3.66666V127.667H596.451V3.66666H594.451ZM664.049 3.66666V2.66666H663.202L663.063 3.50271L664.049 3.66666ZM697.883 3.66666L698.852 3.91416L699.17 2.66666H697.883V3.66666ZM670.549 110.667L669.581 110.419L669.549 110.541V110.667H670.549ZM670.549 157V158H671.549V157H670.549ZM635.883 157H634.883V158H635.883V157ZM635.883 110.667H636.883V110.541L636.852 110.419L635.883 110.667ZM608.549 3.66666V2.66666H607.262L607.581 3.91416L608.549 3.66666ZM642.383 3.66666L643.369 3.50271L643.23 2.66666H642.383V3.66666ZM652.216 62.8333L651.23 62.9973L651.369 63.8333H652.216V62.8333ZM654.216 62.8333V63.8333H655.064L655.203 62.9973L654.216 62.8333ZM664.049 4.66666H697.883V2.66666H664.049V4.66666ZM696.914 3.41915L669.581 110.419L671.518 110.914L698.852 3.91416L696.914 3.41915ZM669.549 110.667V157H671.549V110.667H669.549ZM670.549 156H635.883V158H670.549V156ZM636.883 157V110.667H634.883V157H636.883ZM636.852 110.419L609.518 3.41915L607.581 3.91416L634.914 110.914L636.852 110.419ZM608.549 4.66666H642.383V2.66666H608.549V4.66666ZM641.396 3.83061L651.23 62.9973L653.203 62.6694L643.369 3.50271L641.396 3.83061ZM652.216 63.8333H654.216V61.8333H652.216V63.8333ZM655.203 62.9973L665.036 3.83061L663.063 3.50271L653.23 62.6694L655.203 62.9973ZM788.609 33V34H789.609V33H788.609ZM768.443 33V32H767.443V33H768.443ZM768.443 65.3333H767.443V66.3333H768.443V65.3333ZM788.109 65.3333H789.109V64.3333H788.109V65.3333ZM788.109 94.3333V95.3333H789.109V94.3333H788.109ZM768.443 94.3333V93.3333H767.443V94.3333H768.443ZM768.443 127.667H767.443V128.667H768.443V127.667ZM788.609 127.667H789.609V126.667H788.609V127.667ZM788.609 157V158H789.609V157H788.609ZM733.276 157H732.276V158H733.276V157ZM733.276 3.66666V2.66666H732.276V3.66666H733.276ZM788.609 3.66666H789.609V2.66666H788.609V3.66666ZM788.609 32H768.443V34H788.609V32ZM767.443 33V65.3333H769.443V33H767.443ZM768.443 66.3333H788.109V64.3333H768.443V66.3333ZM787.109 65.3333V94.3333H789.109V65.3333H787.109ZM788.109 93.3333H768.443V95.3333H788.109V93.3333ZM767.443 94.3333V127.667H769.443V94.3333H767.443ZM768.443 128.667H788.609V126.667H768.443V128.667ZM787.609 127.667V157H789.609V127.667H787.609ZM788.609 156H733.276V158H788.609V156ZM734.276 157V3.66666H732.276V157H734.276ZM733.276 4.66666H788.609V2.66666H733.276V4.66666ZM787.609 3.66666V33H789.609V3.66666H787.609ZM852.523 33V34H853.523V33H852.523ZM832.523 33V32H831.523V33H832.523ZM832.523 67H831.523V68H832.523V67ZM852.523 67H853.523V66H852.523V67ZM852.523 96V97H853.523V96H852.523ZM832.523 96V95H831.523V96H832.523ZM832.523 157V158H833.523V157H832.523ZM797.19 157H796.19V158H797.19V157ZM797.19 3.66666V2.66666H796.19V3.66666H797.19ZM852.523 3.66666H853.523V2.66666H852.523V3.66666ZM852.523 32H832.523V34H852.523V32ZM831.523 33V67H833.523V33H831.523ZM832.523 68H852.523V66H832.523V68ZM851.523 67V96H853.523V67H851.523ZM852.523 95H832.523V97H852.523V95ZM831.523 96V157H833.523V96H831.523ZM832.523 156H797.19V158H832.523V156ZM798.19 157V3.66666H796.19V157H798.19ZM797.19 4.66666H852.523V2.66666H797.19V4.66666ZM851.523 3.66666V33H853.523V3.66666H851.523ZM916.438 33V34H917.438V33H916.438ZM896.438 33V32H895.438V33H896.438ZM896.438 67H895.438V68H896.438V67ZM916.438 67H917.438V66H916.438V67ZM916.438 96V97H917.438V96H916.438ZM896.438 96V95H895.438V96H896.438ZM896.438 157V158H897.438V157H896.438ZM861.104 157H860.104V158H861.104V157ZM861.104 3.66666V2.66666H860.104V3.66666H861.104ZM916.438 3.66666H917.438V2.66666H916.438V3.66666ZM916.438 32H896.438V34H916.438V32ZM895.438 33V67H897.438V33H895.438ZM896.438 68H916.438V66H896.438V68ZM915.438 67V96H917.438V67H915.438ZM916.438 95H896.438V97H916.438V95ZM895.438 96V157H897.438V96H895.438ZM896.438 156H861.104V158H896.438V156ZM862.104 157V3.66666H860.104V157H862.104ZM861.104 4.66666H916.438V2.66666H861.104V4.66666ZM915.438 3.66666V33H917.438V3.66666H915.438ZM980.352 33V34H981.352V33H980.352ZM960.185 33V32H959.185V33H960.185ZM960.185 65.3333H959.185V66.3333H960.185V65.3333ZM979.852 65.3333H980.852V64.3333H979.852V65.3333ZM979.852 94.3333V95.3333H980.852V94.3333H979.852ZM960.185 94.3333V93.3333H959.185V94.3333H960.185ZM960.185 127.667H959.185V128.667H960.185V127.667ZM980.352 127.667H981.352V126.667H980.352V127.667ZM980.352 157V158H981.352V157H980.352ZM925.018 157H924.018V158H925.018V157ZM925.018 3.66666V2.66666H924.018V3.66666H925.018ZM980.352 3.66666H981.352V2.66666H980.352V3.66666ZM980.352 32H960.185V34H980.352V32ZM959.185 33V65.3333H961.185V33H959.185ZM960.185 66.3333H979.852V64.3333H960.185V66.3333ZM978.852 65.3333V94.3333H980.852V65.3333H978.852ZM979.852 93.3333H960.185V95.3333H979.852V93.3333ZM959.185 94.3333V127.667H961.185V94.3333H959.185ZM960.185 128.667H980.352V126.667H960.185V128.667ZM979.352 127.667V157H981.352V127.667H979.352ZM980.352 156H925.018V158H980.352V156ZM926.018 157V3.66666H924.018V157H926.018ZM925.018 4.66666H980.352V2.66666H925.018V4.66666ZM979.352 3.66666V33H981.352V3.66666H979.352ZM1067.15 75.3333V76.3333H1068.15V75.3333H1067.15ZM1031.98 75.3333H1030.98V76.3333H1031.98V75.3333ZM1031.98 85.3333V84.3333H1030.98V85.3333H1031.98ZM1067.15 85.3333H1068.15V84.3333H1067.15V85.3333ZM1027.65 158.167C1015.74 158.167 1006.14 156.01 999.521 150.778C992.956 145.585 989.151 137.212 989.151 124.333H987.151C987.151 137.621 991.096 146.665 998.281 152.347C1005.42 157.99 1015.56 160.167 1027.65 160.167V158.167ZM989.151 124.333V36.6667H987.151V124.333H989.151ZM989.151 36.6667C989.151 23.8728 992.955 15.4978 999.523 10.2832C1006.14 5.03083 1015.74 2.83333 1027.65 2.83333V0.833326C1015.56 0.833326 1005.41 3.05249 998.279 8.71682C991.097 14.4189 987.151 23.4605 987.151 36.6667H989.151ZM1027.65 2.83333C1039.48 2.83333 1049.08 5.03027 1055.72 10.2841C1062.31 15.5002 1066.15 23.8762 1066.15 36.6667H1068.15C1068.15 23.4571 1064.16 14.4164 1056.96 8.7159C1049.8 3.05305 1039.66 0.833326 1027.65 0.833326V2.83333ZM1066.15 36.6667V75.3333H1068.15V36.6667H1066.15ZM1067.15 74.3333H1031.98V76.3333H1067.15V74.3333ZM1032.98 75.3333V36.8333H1030.98V75.3333H1032.98ZM1032.98 36.8333C1032.98 34.5306 1032.45 32.8318 1031.43 31.7041C1030.4 30.5591 1029.01 30.1667 1027.65 30.1667V32.1667C1028.63 32.1667 1029.4 32.4409 1029.95 33.0459C1030.51 33.6682 1030.98 34.8027 1030.98 36.8333H1032.98ZM1027.65 30.1667C1026.23 30.1667 1024.82 30.5512 1023.8 31.714C1022.8 32.8492 1022.32 34.5517 1022.32 36.8333H1024.32C1024.32 34.7817 1024.76 33.6508 1025.3 33.036C1025.81 32.4488 1026.58 32.1667 1027.65 32.1667V30.1667ZM1022.32 36.8333V124.167H1024.32V36.8333H1022.32ZM1022.32 124.167C1022.32 126.52 1022.79 128.235 1023.8 129.357C1024.84 130.507 1026.26 130.833 1027.65 130.833V128.833C1026.54 128.833 1025.79 128.576 1025.29 128.018C1024.76 127.431 1024.32 126.313 1024.32 124.167H1022.32ZM1027.65 130.833C1028.98 130.833 1030.38 130.5 1031.43 129.367C1032.46 128.252 1032.98 126.541 1032.98 124.167H1030.98C1030.98 126.292 1030.51 127.414 1029.96 128.008C1029.43 128.583 1028.66 128.833 1027.65 128.833V130.833ZM1032.98 124.167V85.3333H1030.98V124.167H1032.98ZM1031.98 86.3333H1067.15V84.3333H1031.98V86.3333ZM1066.15 85.3333V124.333H1068.15V85.3333H1066.15ZM1066.15 124.333C1066.15 137.209 1062.31 145.583 1055.72 150.777C1049.08 156.01 1039.48 158.167 1027.65 158.167V160.167C1039.66 160.167 1049.8 157.99 1056.96 152.348C1064.16 146.667 1068.15 137.624 1068.15 124.333H1066.15ZM1147.24 3.66666H1148.24V2.66666H1147.24V3.66666ZM1147.24 33V34H1148.24V33H1147.24ZM1127.41 33V32H1126.41V33H1127.41ZM1127.41 157V158H1128.41V157H1127.41ZM1092.41 157H1091.41V158H1092.41V157ZM1092.41 33H1093.41V32H1092.41V33ZM1072.58 33H1071.58V34H1072.58V33ZM1072.58 3.66666V2.66666H1071.58V3.66666H1072.58ZM1146.24 3.66666V33H1148.24V3.66666H1146.24ZM1147.24 32H1127.41V34H1147.24V32ZM1126.41 33V157H1128.41V33H1126.41ZM1127.41 156H1092.41V158H1127.41V156ZM1093.41 157V33H1091.41V157H1093.41ZM1092.41 32H1072.58V34H1092.41V32ZM1073.58 33V3.66666H1071.58V33H1073.58ZM1072.58 4.66666H1147.24V2.66666H1072.58V4.66666Z" fill="#161616"/>
</svg>
