<svg width="38" height="38" viewBox="0 0 38 38" fill="none" xmlns="http://www.w3.org/2000/svg">
<g id="Close">
<path id="Fill-52" d="M18.8 30.3999C12.6143 30.3999 7.6001 25.3857 7.6001 19.2C7.6001 13.0142 12.6143 8 18.8 8C24.9858 8 30 13.0142 30 19.2C30 25.3388 24.9858 30.3999 18.8 30.3999ZM18.8 9.17154C13.3172 9.17154 8.81849 13.6703 8.81849 19.1531C8.81849 24.6359 13.3172 29.1346 18.8 29.1346C24.2829 29.1346 28.7816 24.6359 28.7816 19.1531C28.7816 13.6703 24.2829 9.17154 18.8 9.17154Z" fill="#161616"/>
<path id="Fill-53" d="M14.3717 24.472C14.1258 24.7178 13.7272 24.7178 13.4813 24.472C13.2355 24.2261 13.2355 23.8275 13.4813 23.5816L23.1817 13.8812C23.4276 13.6354 23.8262 13.6354 24.0721 13.8812C24.3179 14.1271 24.3179 14.5257 24.0721 14.7716L14.3717 24.472Z" fill="#161616"/>
<path id="Fill-54" d="M24.0721 24.472C23.8262 24.7178 23.4276 24.7178 23.1817 24.472L13.4813 14.7716C13.2355 14.5257 13.2355 14.1271 13.4813 13.8812C13.7272 13.6353 14.1258 13.6354 14.3717 13.8812L24.0721 23.5816C24.3179 23.8275 24.3179 24.2261 24.0721 24.472Z" fill="#161616"/>
</g>
</svg>
