<svg width="40" height="40" viewBox="0 0 40 40" fill="none" xmlns="http://www.w3.org/2000/svg">
<path d="M18.3333 15.0002H21.6667C22.1087 15.0002 22.5326 15.1758 22.8452 15.4883C23.1577 15.8009 23.3333 16.2248 23.3333 16.6668C23.3333 17.1089 23.5089 17.5328 23.8215 17.8453C24.134 18.1579 24.558 18.3335 25 18.3335C25.442 18.3335 25.8659 18.1579 26.1785 17.8453C26.4911 17.5328 26.6667 17.1089 26.6667 16.6668C26.6667 15.3407 26.1399 14.069 25.2022 13.1313C24.2645 12.1936 22.9927 11.6668 21.6667 11.6668H18.3333C17.0072 11.6668 15.7355 12.1936 14.7978 13.1313C13.8601 14.069 13.3333 15.3407 13.3333 16.6668V23.3335C13.3333 24.6596 13.8601 25.9314 14.7978 26.869C15.7355 27.8067 17.0072 28.3335 18.3333 28.3335H21.6667C22.9927 28.3335 24.2645 27.8067 25.2022 26.869C26.1399 25.9314 26.6667 24.6596 26.6667 23.3335C26.6667 22.8915 26.4911 22.4675 26.1785 22.155C25.8659 21.8424 25.442 21.6668 25 21.6668C24.558 21.6668 24.134 21.8424 23.8215 22.155C23.5089 22.4675 23.3333 22.8915 23.3333 23.3335C23.3333 23.7755 23.1577 24.1994 22.8452 24.512C22.5326 24.8246 22.1087 25.0002 21.6667 25.0002H18.3333C17.8913 25.0002 17.4674 24.8246 17.1548 24.512C16.8422 24.1994 16.6667 23.7755 16.6667 23.3335V16.6668C16.6667 16.2248 16.8422 15.8009 17.1548 15.4883C17.4674 15.1758 17.8913 15.0002 18.3333 15.0002ZM20 3.3335C16.7036 3.3335 13.4813 4.31098 10.7405 6.14234C7.99966 7.97369 5.86346 10.5767 4.60199 13.6221C3.34053 16.6675 3.01048 20.0187 3.65357 23.2517C4.29665 26.4847 5.884 29.4544 8.21487 31.7853C10.5457 34.1162 13.5155 35.7035 16.7485 36.3466C19.9815 36.9897 23.3326 36.6596 26.378 35.3982C29.4235 34.1367 32.0265 32.0005 33.8578 29.2597C35.6892 26.5188 36.6667 23.2965 36.6667 20.0002C36.6667 17.8115 36.2356 15.6442 35.398 13.6221C34.5604 11.6 33.3327 9.76269 31.7851 8.21505C30.2375 6.66741 28.4001 5.43975 26.378 4.60217C24.356 3.76459 22.1887 3.3335 20 3.3335ZM20 33.3335C17.3629 33.3335 14.785 32.5515 12.5924 31.0864C10.3997 29.6213 8.69076 27.539 7.68159 25.1026C6.67243 22.6663 6.40838 19.9854 6.92285 17.399C7.43732 14.8125 8.7072 12.4368 10.5719 10.5721C12.4366 8.70737 14.8124 7.4375 17.3988 6.92303C19.9852 6.40856 22.6661 6.6726 25.1024 7.68177C27.5388 8.69094 29.6212 10.3999 31.0862 12.5926C32.5513 14.7852 33.3333 17.3631 33.3333 20.0002C33.3333 23.5364 31.9286 26.9278 29.4281 29.4283C26.9276 31.9287 23.5362 33.3335 20 33.3335Z" fill="#161616"/>
</svg>
