<svg width="1245" height="114" viewBox="0 0 1245 114" fill="none" xmlns="http://www.w3.org/2000/svg">
<line x1="408.5" y1="2.18557e-08" x2="408.5" y2="114" stroke="#161616"/>
<line x1="825.5" y1="2.18557e-08" x2="825.5" y2="114" stroke="#161616"/>
<mask id="path-3-inside-1_231_2354" fill="white">
<path d="M868.437 4.69999H886.785V99H868.437V60.5625H860.545V99H842.197V4.69999H860.545V45.1875H868.437V4.69999ZM915.129 100.128C901.804 100.128 892.887 95.105 892.887 79.935V4.69999H911.234V79.8325C911.234 83.625 912.977 84.7525 915.129 84.7525C917.282 84.7525 919.024 83.625 919.024 79.8325V4.69999H937.372V79.935C937.372 95.105 928.454 100.128 915.129 100.128ZM989.598 99H973.301L967.253 71.4275H965.203H961.923V99H943.576V4.69999H969.611C984.678 4.69999 987.753 10.3375 987.753 24.8925V52.3625C987.753 59.1275 985.601 63.74 982.013 66.7125L989.598 99ZM961.923 58.41H965.306C968.791 58.41 969.816 57.18 969.816 53.3875V24.995C969.816 21.2025 968.791 19.9725 965.306 19.9725H961.923V58.41ZM1040.77 99H1024.47L1018.42 71.4275H1016.37H1013.09V99H994.746V4.69999H1020.78C1035.85 4.69999 1038.92 10.3375 1038.92 24.8925V52.3625C1038.92 59.1275 1036.77 63.74 1033.18 66.7125L1040.77 99ZM1013.09 58.41H1016.48C1019.96 58.41 1020.99 57.18 1020.99 53.3875V24.995C1020.99 21.2025 1019.96 19.9725 1016.48 19.9725H1013.09V58.41ZM1073.71 4.69999H1091.44L1075.14 68.5575V99H1057.1V68.5575L1040.81 4.69999H1058.54L1065.61 43.24H1066.64L1073.71 4.69999ZM1134.22 100.128C1120.9 100.128 1111.98 95.105 1111.98 79.935V4.69999H1130.33V79.8325C1130.33 83.625 1132.07 84.7525 1134.22 84.7525C1136.38 84.7525 1138.12 83.625 1138.12 79.8325V4.69999H1156.47V79.935C1156.47 95.105 1147.55 100.128 1134.22 100.128ZM1188.7 4.69999C1203.77 4.69999 1206.85 10.3375 1206.85 24.8925V59.025C1206.85 73.58 1203.77 79.2175 1188.7 79.2175H1181.02V99H1162.67V4.69999H1188.7ZM1188.91 58.9225V24.995C1188.91 21.2025 1187.88 19.9725 1184.4 19.9725H1181.02V63.945H1184.4C1187.88 63.945 1188.91 62.715 1188.91 58.9225ZM1219.41 75.8774V7.95117H1235.75V75.8774H1219.41ZM1219.41 99V83.3848H1235.75V99H1219.41Z"/>
</mask>
<path d="M868.437 4.69999V3.19999H866.937V4.69999H868.437ZM886.785 4.69999H888.285V3.19999H886.785V4.69999ZM886.785 99V100.5H888.285V99H886.785ZM868.437 99H866.937V100.5H868.437V99ZM868.437 60.5625H869.937V59.0625H868.437V60.5625ZM860.545 60.5625V59.0625H859.045V60.5625H860.545ZM860.545 99V100.5H862.045V99H860.545ZM842.197 99H840.697V100.5H842.197V99ZM842.197 4.69999V3.19999H840.697V4.69999H842.197ZM860.545 4.69999H862.045V3.19999H860.545V4.69999ZM860.545 45.1875H859.045V46.6875H860.545V45.1875ZM868.437 45.1875V46.6875H869.937V45.1875H868.437ZM868.437 6.19999H886.785V3.19999H868.437V6.19999ZM885.285 4.69999V99H888.285V4.69999H885.285ZM886.785 97.5H868.437V100.5H886.785V97.5ZM869.937 99V60.5625H866.937V99H869.937ZM868.437 59.0625H860.545V62.0625H868.437V59.0625ZM859.045 60.5625V99H862.045V60.5625H859.045ZM860.545 97.5H842.197V100.5H860.545V97.5ZM843.697 99V4.69999H840.697V99H843.697ZM842.197 6.19999H860.545V3.19999H842.197V6.19999ZM859.045 4.69999V45.1875H862.045V4.69999H859.045ZM860.545 46.6875H868.437V43.6875H860.545V46.6875ZM869.937 45.1875V4.69999H866.937V45.1875H869.937ZM892.887 4.69999V3.19999H891.387V4.69999H892.887ZM911.234 4.69999H912.734V3.19999H911.234V4.69999ZM919.024 4.69999V3.19999H917.524V4.69999H919.024ZM937.372 4.69999H938.872V3.19999H937.372V4.69999ZM915.129 98.6275C908.609 98.6275 903.46 97.3904 899.954 94.554C896.514 91.7699 894.387 87.2182 894.387 79.935H891.387C891.387 87.8218 893.718 93.3663 898.067 96.886C902.352 100.353 908.324 101.628 915.129 101.628V98.6275ZM894.387 79.935V4.69999H891.387V79.935H894.387ZM892.887 6.19999H911.234V3.19999H892.887V6.19999ZM909.734 4.69999V79.8325H912.734V4.69999H909.734ZM909.734 79.8325C909.734 81.9291 910.213 83.5959 911.277 84.7375C912.361 85.9005 913.802 86.2525 915.129 86.2525V83.2525C914.304 83.2525 913.797 83.0408 913.472 82.6919C913.126 82.3216 912.734 81.5284 912.734 79.8325H909.734ZM915.129 86.2525C916.456 86.2525 917.897 85.9005 918.981 84.7375C920.045 83.5959 920.524 81.9291 920.524 79.8325H917.524C917.524 81.5284 917.132 82.3216 916.787 82.6919C916.461 83.0408 915.954 83.2525 915.129 83.2525V86.2525ZM920.524 79.8325V4.69999H917.524V79.8325H920.524ZM919.024 6.19999H937.372V3.19999H919.024V6.19999ZM935.872 4.69999V79.935H938.872V4.69999H935.872ZM935.872 79.935C935.872 87.2182 933.744 91.7699 930.304 94.554C926.798 97.3904 921.649 98.6275 915.129 98.6275V101.628C921.934 101.628 927.906 100.353 932.191 96.886C936.54 93.3663 938.872 87.8218 938.872 79.935H935.872ZM989.598 99V100.5H991.492L991.059 98.657L989.598 99ZM973.301 99L971.836 99.3214L972.094 100.5H973.301V99ZM967.253 71.4275L968.719 71.1061L968.46 69.9275H967.253V71.4275ZM961.923 71.4275V69.9275H960.423V71.4275H961.923ZM961.923 99V100.5H963.423V99H961.923ZM943.576 99H942.076V100.5H943.576V99ZM943.576 4.69999V3.19999H942.076V4.69999H943.576ZM982.013 66.7125L981.056 65.5575L980.341 66.1506L980.553 67.0555L982.013 66.7125ZM961.923 58.41H960.423V59.91H961.923V58.41ZM961.923 19.9725V18.4725H960.423V19.9725H961.923ZM989.598 97.5H973.301V100.5H989.598V97.5ZM974.766 98.6786L968.719 71.1061L965.788 71.7489L971.836 99.3214L974.766 98.6786ZM967.253 69.9275H965.203V72.9275H967.253V69.9275ZM965.203 69.9275H961.923V72.9275H965.203V69.9275ZM960.423 71.4275V99H963.423V71.4275H960.423ZM961.923 97.5H943.576V100.5H961.923V97.5ZM945.076 99V4.69999H942.076V99H945.076ZM943.576 6.19999H969.611V3.19999H943.576V6.19999ZM969.611 6.19999C977.043 6.19999 980.97 7.60824 983.173 10.2902C985.451 13.0633 986.253 17.5983 986.253 24.8925H989.253C989.253 17.6317 988.518 12.0705 985.492 8.38601C982.39 4.6105 977.247 3.19999 969.611 3.19999V6.19999ZM986.253 24.8925V52.3625H989.253V24.8925H986.253ZM986.253 52.3625C986.253 58.7851 984.227 62.9304 981.056 65.5575L982.971 67.8675C986.975 64.5496 989.253 59.4699 989.253 52.3625H986.253ZM980.553 67.0555L988.138 99.343L991.059 98.657L983.474 66.3695L980.553 67.0555ZM961.923 59.91H965.306V56.91H961.923V59.91ZM965.306 59.91C967.142 59.91 968.849 59.6047 969.991 58.3152C971.082 57.083 971.316 55.313 971.316 53.3875H968.316C968.316 55.2545 968.038 55.9957 967.745 56.3267C967.502 56.6003 966.955 56.91 965.306 56.91V59.91ZM971.316 53.3875V24.995H968.316V53.3875H971.316ZM971.316 24.995C971.316 23.0695 971.082 21.2995 969.991 20.0673C968.849 18.7778 967.142 18.4725 965.306 18.4725V21.4725C966.955 21.4725 967.502 21.7822 967.745 22.0558C968.038 22.3868 968.316 23.128 968.316 24.995H971.316ZM965.306 18.4725H961.923V21.4725H965.306V18.4725ZM960.423 19.9725V58.41H963.423V19.9725H960.423ZM1040.77 99V100.5H1042.66L1042.23 98.657L1040.77 99ZM1024.47 99L1023.01 99.3214L1023.26 100.5H1024.47V99ZM1018.42 71.4275L1019.89 71.1061L1019.63 69.9275H1018.42V71.4275ZM1013.09 71.4275V69.9275H1011.59V71.4275H1013.09ZM1013.09 99V100.5H1014.59V99H1013.09ZM994.746 99H993.246V100.5H994.746V99ZM994.746 4.69999V3.19999H993.246V4.69999H994.746ZM1033.18 66.7125L1032.23 65.5575L1031.51 66.1506L1031.72 67.0555L1033.18 66.7125ZM1013.09 58.41H1011.59V59.91H1013.09V58.41ZM1013.09 19.9725V18.4725H1011.59V19.9725H1013.09ZM1040.77 97.5H1024.47V100.5H1040.77V97.5ZM1025.94 98.6786L1019.89 71.1061L1016.96 71.7489L1023.01 99.3214L1025.94 98.6786ZM1018.42 69.9275H1016.37V72.9275H1018.42V69.9275ZM1016.37 69.9275H1013.09V72.9275H1016.37V69.9275ZM1011.59 71.4275V99H1014.59V71.4275H1011.59ZM1013.09 97.5H994.746V100.5H1013.09V97.5ZM996.246 99V4.69999H993.246V99H996.246ZM994.746 6.19999H1020.78V3.19999H994.746V6.19999ZM1020.78 6.19999C1028.21 6.19999 1032.14 7.60824 1034.34 10.2902C1036.62 13.0633 1037.42 17.5983 1037.42 24.8925H1040.42C1040.42 17.6317 1039.69 12.0705 1036.66 8.38601C1033.56 4.6105 1028.42 3.19999 1020.78 3.19999V6.19999ZM1037.42 24.8925V52.3625H1040.42V24.8925H1037.42ZM1037.42 52.3625C1037.42 58.7851 1035.4 62.9304 1032.23 65.5575L1034.14 67.8675C1038.14 64.5496 1040.42 59.4699 1040.42 52.3625H1037.42ZM1031.72 67.0555L1039.31 99.343L1042.23 98.657L1034.64 66.3695L1031.72 67.0555ZM1013.09 59.91H1016.48V56.91H1013.09V59.91ZM1016.48 59.91C1018.31 59.91 1020.02 59.6047 1021.16 58.3152C1022.25 57.083 1022.49 55.313 1022.49 53.3875H1019.49C1019.49 55.2545 1019.21 55.9957 1018.91 56.3267C1018.67 56.6003 1018.12 56.91 1016.48 56.91V59.91ZM1022.49 53.3875V24.995H1019.49V53.3875H1022.49ZM1022.49 24.995C1022.49 23.0695 1022.25 21.2995 1021.16 20.0673C1020.02 18.7778 1018.31 18.4725 1016.48 18.4725V21.4725C1018.12 21.4725 1018.67 21.7822 1018.91 22.0558C1019.21 22.3868 1019.49 23.128 1019.49 24.995H1022.49ZM1016.48 18.4725H1013.09V21.4725H1016.48V18.4725ZM1011.59 19.9725V58.41H1014.59V19.9725H1011.59ZM1073.71 4.69999V3.19999H1072.46L1072.23 4.42925L1073.71 4.69999ZM1091.44 4.69999L1092.9 5.07093L1093.37 3.19999H1091.44V4.69999ZM1075.14 68.5575L1073.69 68.1866L1073.64 68.3691V68.5575H1075.14ZM1075.14 99V100.5H1076.64V99H1075.14ZM1057.1 99H1055.6V100.5H1057.1V99ZM1057.1 68.5575H1058.6V68.3691L1058.56 68.1866L1057.1 68.5575ZM1040.81 4.69999V3.19999H1038.88L1039.35 5.07093L1040.81 4.69999ZM1058.54 4.69999L1060.01 4.42925L1059.79 3.19999H1058.54V4.69999ZM1065.61 43.24L1064.14 43.5107L1064.36 44.74H1065.61V43.24ZM1066.64 43.24V44.74H1067.89L1068.11 43.5107L1066.64 43.24ZM1073.71 6.19999H1091.44V3.19999H1073.71V6.19999ZM1089.99 4.32906L1073.69 68.1866L1076.6 68.9284L1092.9 5.07093L1089.99 4.32906ZM1073.64 68.5575V99H1076.64V68.5575H1073.64ZM1075.14 97.5H1057.1V100.5H1075.14V97.5ZM1058.6 99V68.5575H1055.6V99H1058.6ZM1058.56 68.1866L1042.26 4.32906L1039.35 5.07093L1055.65 68.9284L1058.56 68.1866ZM1040.81 6.19999H1058.54V3.19999H1040.81V6.19999ZM1057.06 4.97074L1064.14 43.5107L1067.09 42.9693L1060.01 4.42925L1057.06 4.97074ZM1065.61 44.74H1066.64V41.74H1065.61V44.74ZM1068.11 43.5107L1075.18 4.97074L1072.23 4.42925L1065.16 42.9693L1068.11 43.5107ZM1111.98 4.69999V3.19999H1110.48V4.69999H1111.98ZM1130.33 4.69999H1131.83V3.19999H1130.33V4.69999ZM1138.12 4.69999V3.19999H1136.62V4.69999H1138.12ZM1156.47 4.69999H1157.97V3.19999H1156.47V4.69999ZM1134.22 98.6275C1127.7 98.6275 1122.55 97.3904 1119.05 94.554C1115.61 91.7699 1113.48 87.2182 1113.48 79.935H1110.48C1110.48 87.8218 1112.81 93.3663 1117.16 96.886C1121.45 100.353 1127.42 101.628 1134.22 101.628V98.6275ZM1113.48 79.935V4.69999H1110.48V79.935H1113.48ZM1111.98 6.19999H1130.33V3.19999H1111.98V6.19999ZM1128.83 4.69999V79.8325H1131.83V4.69999H1128.83ZM1128.83 79.8325C1128.83 81.9291 1129.31 83.5959 1130.37 84.7375C1131.45 85.9005 1132.9 86.2525 1134.22 86.2525V83.2525C1133.4 83.2525 1132.89 83.0408 1132.57 82.6919C1132.22 82.3216 1131.83 81.5284 1131.83 79.8325H1128.83ZM1134.22 86.2525C1135.55 86.2525 1136.99 85.9005 1138.07 84.7375C1139.14 83.5959 1139.62 81.9291 1139.62 79.8325H1136.62C1136.62 81.5284 1136.23 82.3216 1135.88 82.6919C1135.55 83.0408 1135.05 83.2525 1134.22 83.2525V86.2525ZM1139.62 79.8325V4.69999H1136.62V79.8325H1139.62ZM1138.12 6.19999H1156.47V3.19999H1138.12V6.19999ZM1154.97 4.69999V79.935H1157.97V4.69999H1154.97ZM1154.97 79.935C1154.97 87.2182 1152.84 91.7699 1149.4 94.554C1145.89 97.3904 1140.74 98.6275 1134.22 98.6275V101.628C1141.03 101.628 1147 100.353 1151.28 96.886C1155.63 93.3663 1157.97 87.8218 1157.97 79.935H1154.97ZM1181.02 79.2175V77.7175H1179.52V79.2175H1181.02ZM1181.02 99V100.5H1182.52V99H1181.02ZM1162.67 99H1161.17V100.5H1162.67V99ZM1162.67 4.69999V3.19999H1161.17V4.69999H1162.67ZM1181.02 19.9725V18.4725H1179.52V19.9725H1181.02ZM1181.02 63.945H1179.52V65.445H1181.02V63.945ZM1188.7 6.19999C1196.14 6.19999 1200.06 7.60824 1202.27 10.2902C1204.55 13.0633 1205.35 17.5983 1205.35 24.8925H1208.35C1208.35 17.6317 1207.61 12.0705 1204.59 8.38601C1201.48 4.6105 1196.34 3.19999 1188.7 3.19999V6.19999ZM1205.35 24.8925V59.025H1208.35V24.8925H1205.35ZM1205.35 59.025C1205.35 66.3192 1204.55 70.8542 1202.27 73.6273C1200.06 76.3092 1196.14 77.7175 1188.7 77.7175V80.7175C1196.34 80.7175 1201.48 79.307 1204.59 75.5315C1207.61 71.847 1208.35 66.2858 1208.35 59.025H1205.35ZM1188.7 77.7175H1181.02V80.7175H1188.7V77.7175ZM1179.52 79.2175V99H1182.52V79.2175H1179.52ZM1181.02 97.5H1162.67V100.5H1181.02V97.5ZM1164.17 99V4.69999H1161.17V99H1164.17ZM1162.67 6.19999H1188.7V3.19999H1162.67V6.19999ZM1190.41 58.9225V24.995H1187.41V58.9225H1190.41ZM1190.41 24.995C1190.41 23.0695 1190.18 21.2995 1189.08 20.0673C1187.94 18.7778 1186.24 18.4725 1184.4 18.4725V21.4725C1186.05 21.4725 1186.6 21.7822 1186.84 22.0558C1187.13 22.3868 1187.41 23.128 1187.41 24.995H1190.41ZM1184.4 18.4725H1181.02V21.4725H1184.4V18.4725ZM1179.52 19.9725V63.945H1182.52V19.9725H1179.52ZM1181.02 65.445H1184.4V62.445H1181.02V65.445ZM1184.4 65.445C1186.24 65.445 1187.94 65.1397 1189.08 63.8502C1190.18 62.618 1190.41 60.848 1190.41 58.9225H1187.41C1187.41 60.7895 1187.13 61.5307 1186.84 61.8617C1186.6 62.1353 1186.05 62.445 1184.4 62.445V65.445ZM1219.41 75.8774H1217.91V77.3774H1219.41V75.8774ZM1219.41 7.95117V6.45117H1217.91V7.95117H1219.41ZM1235.75 7.95117H1237.25V6.45117H1235.75V7.95117ZM1235.75 75.8774V77.3774H1237.25V75.8774H1235.75ZM1219.41 99H1217.91V100.5H1219.41V99ZM1219.41 83.3848V81.8848H1217.91V83.3848H1219.41ZM1235.75 83.3848H1237.25V81.8848H1235.75V83.3848ZM1235.75 99V100.5H1237.25V99H1235.75ZM1220.91 75.8774V7.95117H1217.91V75.8774H1220.91ZM1219.41 9.45117H1235.75V6.45117H1219.41V9.45117ZM1234.25 7.95117V75.8774H1237.25V7.95117H1234.25ZM1235.75 74.3774H1219.41V77.3774H1235.75V74.3774ZM1220.91 99V83.3848H1217.91V99H1220.91ZM1219.41 84.8848H1235.75V81.8848H1219.41V84.8848ZM1234.25 83.3848V99H1237.25V83.3848H1234.25ZM1235.75 97.5H1219.41V100.5H1235.75V97.5Z" fill="#E31C25" mask="url(#path-3-inside-1_231_2354)"/>
<path d="M445.437 4.69999H463.785V99H445.437V60.5625H437.545V99H419.197V4.69999H437.545V45.1875H445.437V4.69999ZM492.129 100.128C478.804 100.128 469.887 95.105 469.887 79.935V4.69999H488.234V79.8325C488.234 83.625 489.977 84.7525 492.129 84.7525C494.282 84.7525 496.024 83.625 496.024 79.8325V4.69999H514.372V79.935C514.372 95.105 505.454 100.128 492.129 100.128ZM566.598 99H550.301L544.253 71.4275H542.203H538.923V99H520.576V4.69999H546.611C561.678 4.69999 564.753 10.3375 564.753 24.8925V52.3625C564.753 59.1275 562.601 63.74 559.013 66.7125L566.598 99ZM538.923 58.41H542.306C545.791 58.41 546.816 57.18 546.816 53.3875V24.995C546.816 21.2025 545.791 19.9725 542.306 19.9725H538.923V58.41ZM617.768 99H601.471L595.423 71.4275H593.373H590.093V99H571.746V4.69999H597.781C612.848 4.69999 615.923 10.3375 615.923 24.8925V52.3625C615.923 59.1275 613.771 63.74 610.183 66.7125L617.768 99ZM590.093 58.41H593.476C596.961 58.41 597.986 57.18 597.986 53.3875V24.995C597.986 21.2025 596.961 19.9725 593.476 19.9725H590.093V58.41ZM650.709 4.69999H668.442L652.144 68.5575V99H634.104V68.5575L617.807 4.69999H635.539L642.612 43.24H643.637L650.709 4.69999ZM796.413 75.8774V7.95117H812.749V75.8774H796.413ZM796.413 99V83.3848H812.749V99H796.413Z" fill="#161616"/>
<path d="M711.223 100.128C697.898 100.128 688.98 95.105 688.98 79.935V4.69999H707.328V79.8325C707.328 83.625 709.07 84.7525 711.223 84.7525C713.375 84.7525 715.118 83.625 715.118 79.8325V4.69999H733.465V79.935C733.465 95.105 724.548 100.128 711.223 100.128ZM765.705 4.69999C780.772 4.69999 783.847 10.3375 783.847 24.8925V59.025C783.847 73.58 780.772 79.2175 765.705 79.2175H758.017V99H739.67V4.69999H765.705ZM765.91 58.9225V24.995C765.91 21.2025 764.885 19.9725 761.4 19.9725H758.017V63.945H761.4C764.885 63.945 765.91 62.715 765.91 58.9225Z" fill="#E31C25"/>
<mask id="path-7-inside-2_231_2354" fill="white">
<path d="M29.4371 4.69999H47.7846V99H29.4371V60.5625H21.5446V99H3.19707V4.69999H21.5446V45.1875H29.4371V4.69999ZM76.129 100.128C62.804 100.128 53.8865 95.105 53.8865 79.935V4.69999H72.234V79.8325C72.234 83.625 73.9765 84.7525 76.129 84.7525C78.2815 84.7525 80.024 83.625 80.024 79.8325V4.69999H98.3715V79.935C98.3715 95.105 89.454 100.128 76.129 100.128ZM150.598 99H134.301L128.253 71.4275H126.203H122.923V99H104.576V4.69999H130.611C145.678 4.69999 148.753 10.3375 148.753 24.8925V52.3625C148.753 59.1275 146.601 63.74 143.013 66.7125L150.598 99ZM122.923 58.41H126.306C129.791 58.41 130.816 57.18 130.816 53.3875V24.995C130.816 21.2025 129.791 19.9725 126.306 19.9725H122.923V58.41ZM201.768 99H185.471L179.423 71.4275H177.373H174.093V99H155.746V4.69999H181.781C196.848 4.69999 199.923 10.3375 199.923 24.8925V52.3625C199.923 59.1275 197.771 63.74 194.183 66.7125L201.768 99ZM174.093 58.41H177.476C180.961 58.41 181.986 57.18 181.986 53.3875V24.995C181.986 21.2025 180.961 19.9725 177.476 19.9725H174.093V58.41ZM234.709 4.69999H252.442L236.144 68.5575V99H218.104V68.5575L201.807 4.69999H219.539L226.612 43.24H227.637L234.709 4.69999ZM295.223 100.128C281.898 100.128 272.98 95.105 272.98 79.935V4.69999H291.328V79.8325C291.328 83.625 293.07 84.7525 295.223 84.7525C297.375 84.7525 299.118 83.625 299.118 79.8325V4.69999H317.465V79.935C317.465 95.105 308.548 100.128 295.223 100.128ZM349.705 4.69999C364.772 4.69999 367.847 10.3375 367.847 24.8925V59.025C367.847 73.58 364.772 79.2175 349.705 79.2175H342.017V99H323.67V4.69999H349.705ZM349.91 58.9225V24.995C349.91 21.2025 348.885 19.9725 345.4 19.9725H342.017V63.945H345.4C348.885 63.945 349.91 62.715 349.91 58.9225ZM380.413 75.8774V7.95117H396.749V75.8774H380.413ZM380.413 99V83.3848H396.749V99H380.413Z"/>
</mask>
<path d="M29.4371 4.69999V3.19999H27.9371V4.69999H29.4371ZM47.7846 4.69999H49.2846V3.19999H47.7846V4.69999ZM47.7846 99V100.5H49.2846V99H47.7846ZM29.4371 99H27.9371V100.5H29.4371V99ZM29.4371 60.5625H30.9371V59.0625H29.4371V60.5625ZM21.5446 60.5625V59.0625H20.0446V60.5625H21.5446ZM21.5446 99V100.5H23.0446V99H21.5446ZM3.19707 99H1.69707V100.5H3.19707V99ZM3.19707 4.69999V3.19999H1.69707V4.69999H3.19707ZM21.5446 4.69999H23.0446V3.19999H21.5446V4.69999ZM21.5446 45.1875H20.0446V46.6875H21.5446V45.1875ZM29.4371 45.1875V46.6875H30.9371V45.1875H29.4371ZM29.4371 6.19999H47.7846V3.19999H29.4371V6.19999ZM46.2846 4.69999V99H49.2846V4.69999H46.2846ZM47.7846 97.5H29.4371V100.5H47.7846V97.5ZM30.9371 99V60.5625H27.9371V99H30.9371ZM29.4371 59.0625H21.5446V62.0625H29.4371V59.0625ZM20.0446 60.5625V99H23.0446V60.5625H20.0446ZM21.5446 97.5H3.19707V100.5H21.5446V97.5ZM4.69707 99V4.69999H1.69707V99H4.69707ZM3.19707 6.19999H21.5446V3.19999H3.19707V6.19999ZM20.0446 4.69999V45.1875H23.0446V4.69999H20.0446ZM21.5446 46.6875H29.4371V43.6875H21.5446V46.6875ZM30.9371 45.1875V4.69999H27.9371V45.1875H30.9371ZM53.8865 4.69999V3.19999H52.3865V4.69999H53.8865ZM72.234 4.69999H73.734V3.19999H72.234V4.69999ZM80.024 4.69999V3.19999H78.524V4.69999H80.024ZM98.3715 4.69999H99.8715V3.19999H98.3715V4.69999ZM76.129 98.6275C69.6092 98.6275 64.4597 97.3904 60.9545 94.554C57.514 91.7699 55.3865 87.2182 55.3865 79.935H52.3865C52.3865 87.8218 54.7178 93.3663 59.0673 96.886C63.3521 100.353 69.3239 101.628 76.129 101.628V98.6275ZM55.3865 79.935V4.69999H52.3865V79.935H55.3865ZM53.8865 6.19999H72.234V3.19999H53.8865V6.19999ZM70.734 4.69999V79.8325H73.734V4.69999H70.734ZM70.734 79.8325C70.734 81.9291 71.2129 83.5959 72.2771 84.7375C73.3612 85.9005 74.8016 86.2525 76.129 86.2525V83.2525C75.3039 83.2525 74.7968 83.0408 74.4715 82.6919C74.1264 82.3216 73.734 81.5284 73.734 79.8325H70.734ZM76.129 86.2525C77.4564 86.2525 78.8968 85.9005 79.9809 84.7375C81.0452 83.5959 81.524 81.9291 81.524 79.8325H78.524C78.524 81.5284 78.1316 82.3216 77.7865 82.6919C77.4612 83.0408 76.9541 83.2525 76.129 83.2525V86.2525ZM81.524 79.8325V4.69999H78.524V79.8325H81.524ZM80.024 6.19999H98.3715V3.19999H80.024V6.19999ZM96.8715 4.69999V79.935H99.8715V4.69999H96.8715ZM96.8715 79.935C96.8715 87.2182 94.744 91.7699 91.3036 94.554C87.7983 97.3904 82.6489 98.6275 76.129 98.6275V101.628C82.9342 101.628 88.906 100.353 93.1907 96.886C97.5403 93.3663 99.8715 87.8218 99.8715 79.935H96.8715ZM150.598 99V100.5H152.492L152.059 98.657L150.598 99ZM134.301 99L132.836 99.3214L133.094 100.5H134.301V99ZM128.253 71.4275L129.719 71.1061L129.46 69.9275H128.253V71.4275ZM122.923 71.4275V69.9275H121.423V71.4275H122.923ZM122.923 99V100.5H124.423V99H122.923ZM104.576 99H103.076V100.5H104.576V99ZM104.576 4.69999V3.19999H103.076V4.69999H104.576ZM143.013 66.7125L142.056 65.5575L141.341 66.1506L141.553 67.0555L143.013 66.7125ZM122.923 58.41H121.423V59.91H122.923V58.41ZM122.923 19.9725V18.4725H121.423V19.9725H122.923ZM150.598 97.5H134.301V100.5H150.598V97.5ZM135.766 98.6786L129.719 71.1061L126.788 71.7489L132.836 99.3214L135.766 98.6786ZM128.253 69.9275H126.203V72.9275H128.253V69.9275ZM126.203 69.9275H122.923V72.9275H126.203V69.9275ZM121.423 71.4275V99H124.423V71.4275H121.423ZM122.923 97.5H104.576V100.5H122.923V97.5ZM106.076 99V4.69999H103.076V99H106.076ZM104.576 6.19999H130.611V3.19999H104.576V6.19999ZM130.611 6.19999C138.043 6.19999 141.97 7.60824 144.173 10.2902C146.451 13.0633 147.253 17.5983 147.253 24.8925H150.253C150.253 17.6317 149.518 12.0705 146.492 8.38601C143.39 4.6105 138.247 3.19999 130.611 3.19999V6.19999ZM147.253 24.8925V52.3625H150.253V24.8925H147.253ZM147.253 52.3625C147.253 58.7851 145.227 62.9304 142.056 65.5575L143.971 67.8675C147.975 64.5496 150.253 59.4699 150.253 52.3625H147.253ZM141.553 67.0555L149.138 99.343L152.059 98.657L144.474 66.3695L141.553 67.0555ZM122.923 59.91H126.306V56.91H122.923V59.91ZM126.306 59.91C128.142 59.91 129.849 59.6047 130.991 58.3152C132.082 57.083 132.316 55.313 132.316 53.3875H129.316C129.316 55.2545 129.038 55.9957 128.745 56.3267C128.502 56.6003 127.955 56.91 126.306 56.91V59.91ZM132.316 53.3875V24.995H129.316V53.3875H132.316ZM132.316 24.995C132.316 23.0695 132.082 21.2995 130.991 20.0673C129.849 18.7778 128.142 18.4725 126.306 18.4725V21.4725C127.955 21.4725 128.502 21.7822 128.745 22.0558C129.038 22.3868 129.316 23.128 129.316 24.995H132.316ZM126.306 18.4725H122.923V21.4725H126.306V18.4725ZM121.423 19.9725V58.41H124.423V19.9725H121.423ZM201.768 99V100.5H203.662L203.229 98.657L201.768 99ZM185.471 99L184.006 99.3214L184.264 100.5H185.471V99ZM179.423 71.4275L180.889 71.1061L180.63 69.9275H179.423V71.4275ZM174.093 71.4275V69.9275H172.593V71.4275H174.093ZM174.093 99V100.5H175.593V99H174.093ZM155.746 99H154.246V100.5H155.746V99ZM155.746 4.69999V3.19999H154.246V4.69999H155.746ZM194.183 66.7125L193.226 65.5575L192.511 66.1506L192.723 67.0555L194.183 66.7125ZM174.093 58.41H172.593V59.91H174.093V58.41ZM174.093 19.9725V18.4725H172.593V19.9725H174.093ZM201.768 97.5H185.471V100.5H201.768V97.5ZM186.936 98.6786L180.889 71.1061L177.958 71.7489L184.006 99.3214L186.936 98.6786ZM179.423 69.9275H177.373V72.9275H179.423V69.9275ZM177.373 69.9275H174.093V72.9275H177.373V69.9275ZM172.593 71.4275V99H175.593V71.4275H172.593ZM174.093 97.5H155.746V100.5H174.093V97.5ZM157.246 99V4.69999H154.246V99H157.246ZM155.746 6.19999H181.781V3.19999H155.746V6.19999ZM181.781 6.19999C189.213 6.19999 193.14 7.60824 195.343 10.2902C197.621 13.0633 198.423 17.5983 198.423 24.8925H201.423C201.423 17.6317 200.688 12.0705 197.662 8.38601C194.56 4.6105 189.417 3.19999 181.781 3.19999V6.19999ZM198.423 24.8925V52.3625H201.423V24.8925H198.423ZM198.423 52.3625C198.423 58.7851 196.397 62.9304 193.226 65.5575L195.14 67.8675C199.145 64.5496 201.423 59.4699 201.423 52.3625H198.423ZM192.723 67.0555L200.308 99.343L203.229 98.657L195.644 66.3695L192.723 67.0555ZM174.093 59.91H177.476V56.91H174.093V59.91ZM177.476 59.91C179.312 59.91 181.019 59.6047 182.161 58.3152C183.252 57.083 183.486 55.313 183.486 53.3875H180.486C180.486 55.2545 180.208 55.9957 179.915 56.3267C179.672 56.6003 179.125 56.91 177.476 56.91V59.91ZM183.486 53.3875V24.995H180.486V53.3875H183.486ZM183.486 24.995C183.486 23.0695 183.252 21.2995 182.161 20.0673C181.019 18.7778 179.312 18.4725 177.476 18.4725V21.4725C179.125 21.4725 179.672 21.7822 179.915 22.0558C180.208 22.3868 180.486 23.128 180.486 24.995H183.486ZM177.476 18.4725H174.093V21.4725H177.476V18.4725ZM172.593 19.9725V58.41H175.593V19.9725H172.593ZM234.709 4.69999V3.19999H233.46L233.234 4.42925L234.709 4.69999ZM252.442 4.69999L253.895 5.07093L254.373 3.19999H252.442V4.69999ZM236.144 68.5575L234.691 68.1866L234.644 68.3691V68.5575H236.144ZM236.144 99V100.5H237.644V99H236.144ZM218.104 99H216.604V100.5H218.104V99ZM218.104 68.5575H219.604V68.3691L219.558 68.1866L218.104 68.5575ZM201.807 4.69999V3.19999H199.876L200.353 5.07093L201.807 4.69999ZM219.539 4.69999L221.015 4.42925L220.789 3.19999H219.539V4.69999ZM226.612 43.24L225.136 43.5107L225.362 44.74H226.612V43.24ZM227.637 43.24V44.74H228.887L229.112 43.5107L227.637 43.24ZM234.709 6.19999H252.442V3.19999H234.709V6.19999ZM250.988 4.32906L234.691 68.1866L237.598 68.9284L253.895 5.07093L250.988 4.32906ZM234.644 68.5575V99H237.644V68.5575H234.644ZM236.144 97.5H218.104V100.5H236.144V97.5ZM219.604 99V68.5575H216.604V99H219.604ZM219.558 68.1866L203.26 4.32906L200.353 5.07093L216.651 68.9284L219.558 68.1866ZM201.807 6.19999H219.539V3.19999H201.807V6.19999ZM218.064 4.97074L225.136 43.5107L228.087 42.9693L221.015 4.42925L218.064 4.97074ZM226.612 44.74H227.637V41.74H226.612V44.74ZM229.112 43.5107L236.185 4.97074L233.234 4.42925L226.161 42.9693L229.112 43.5107ZM272.98 4.69999V3.19999H271.48V4.69999H272.98ZM291.328 4.69999H292.828V3.19999H291.328V4.69999ZM299.118 4.69999V3.19999H297.618V4.69999H299.118ZM317.465 4.69999H318.965V3.19999H317.465V4.69999ZM295.223 98.6275C288.703 98.6275 283.553 97.3904 280.048 94.554C276.608 91.7699 274.48 87.2182 274.48 79.935H271.48C271.48 87.8218 273.812 93.3663 278.161 96.886C282.446 100.353 288.418 101.628 295.223 101.628V98.6275ZM274.48 79.935V4.69999H271.48V79.935H274.48ZM272.98 6.19999H291.328V3.19999H272.98V6.19999ZM289.828 4.69999V79.8325H292.828V4.69999H289.828ZM289.828 79.8325C289.828 81.9291 290.307 83.5959 291.371 84.7375C292.455 85.9005 293.895 86.2525 295.223 86.2525V83.2525C294.398 83.2525 293.891 83.0408 293.565 82.6919C293.22 82.3216 292.828 81.5284 292.828 79.8325H289.828ZM295.223 86.2525C296.55 86.2525 297.991 85.9005 299.075 84.7375C300.139 83.5959 300.618 81.9291 300.618 79.8325H297.618C297.618 81.5284 297.225 82.3216 296.88 82.6919C296.555 83.0408 296.048 83.2525 295.223 83.2525V86.2525ZM300.618 79.8325V4.69999H297.618V79.8325H300.618ZM299.118 6.19999H317.465V3.19999H299.118V6.19999ZM315.965 4.69999V79.935H318.965V4.69999H315.965ZM315.965 79.935C315.965 87.2182 313.838 91.7699 310.397 94.554C306.892 97.3904 301.743 98.6275 295.223 98.6275V101.628C302.028 101.628 308 100.353 312.284 96.886C316.634 93.3663 318.965 87.8218 318.965 79.935H315.965ZM342.017 79.2175V77.7175H340.517V79.2175H342.017ZM342.017 99V100.5H343.517V99H342.017ZM323.67 99H322.17V100.5H323.67V99ZM323.67 4.69999V3.19999H322.17V4.69999H323.67ZM342.017 19.9725V18.4725H340.517V19.9725H342.017ZM342.017 63.945H340.517V65.445H342.017V63.945ZM349.705 6.19999C357.136 6.19999 361.064 7.60824 363.267 10.2902C365.545 13.0633 366.347 17.5983 366.347 24.8925H369.347C369.347 17.6317 368.612 12.0705 365.585 8.38601C362.484 4.6105 357.341 3.19999 349.705 3.19999V6.19999ZM366.347 24.8925V59.025H369.347V24.8925H366.347ZM366.347 59.025C366.347 66.3192 365.545 70.8542 363.267 73.6273C361.064 76.3092 357.136 77.7175 349.705 77.7175V80.7175C357.341 80.7175 362.484 79.307 365.585 75.5315C368.612 71.847 369.347 66.2858 369.347 59.025H366.347ZM349.705 77.7175H342.017V80.7175H349.705V77.7175ZM340.517 79.2175V99H343.517V79.2175H340.517ZM342.017 97.5H323.67V100.5H342.017V97.5ZM325.17 99V4.69999H322.17V99H325.17ZM323.67 6.19999H349.705V3.19999H323.67V6.19999ZM351.41 58.9225V24.995H348.41V58.9225H351.41ZM351.41 24.995C351.41 23.0695 351.176 21.2995 350.085 20.0673C348.943 18.7778 347.236 18.4725 345.4 18.4725V21.4725C347.048 21.4725 347.596 21.7822 347.838 22.0558C348.131 22.3868 348.41 23.128 348.41 24.995H351.41ZM345.4 18.4725H342.017V21.4725H345.4V18.4725ZM340.517 19.9725V63.945H343.517V19.9725H340.517ZM342.017 65.445H345.4V62.445H342.017V65.445ZM345.4 65.445C347.236 65.445 348.943 65.1397 350.085 63.8502C351.176 62.618 351.41 60.848 351.41 58.9225H348.41C348.41 60.7895 348.131 61.5307 347.838 61.8617C347.596 62.1353 347.048 62.445 345.4 62.445V65.445ZM380.413 75.8774H378.913V77.3774H380.413V75.8774ZM380.413 7.95117V6.45117H378.913V7.95117H380.413ZM396.749 7.95117H398.249V6.45117H396.749V7.95117ZM396.749 75.8774V77.3774H398.249V75.8774H396.749ZM380.413 99H378.913V100.5H380.413V99ZM380.413 83.3848V81.8848H378.913V83.3848H380.413ZM396.749 83.3848H398.249V81.8848H396.749V83.3848ZM396.749 99V100.5H398.249V99H396.749ZM381.913 75.8774V7.95117H378.913V75.8774H381.913ZM380.413 9.45117H396.749V6.45117H380.413V9.45117ZM395.249 7.95117V75.8774H398.249V7.95117H395.249ZM396.749 74.3774H380.413V77.3774H396.749V74.3774ZM381.913 99V83.3848H378.913V99H381.913ZM380.413 84.8848H396.749V81.8848H380.413V84.8848ZM395.249 83.3848V99H398.249V83.3848H395.249ZM396.749 97.5H380.413V100.5H396.749V97.5Z" fill="#E31C25" mask="url(#path-7-inside-2_231_2354)"/>
</svg>
