<svg width="1145" height="159" viewBox="0 0 1145 159" fill="none" xmlns="http://www.w3.org/2000/svg">
<path d="M67.901 78C76.7344 82.8333 80.2344 90 80.2344 100.333V121.167C80.2344 146.667 74.7344 156 48.401 156H0.901042V2.66666H48.0677C73.401 2.66666 78.901 12 78.901 37.5V56C78.901 65.1667 76.5677 71.6667 67.901 76V78ZM39.2344 32H36.0677V66.6667H39.401C43.7344 66.6667 44.7344 65.1667 44.7344 61.1667V38C44.7344 33.6667 43.5677 32 39.2344 32ZM45.0677 120.5V95.3333C45.0677 91.3333 44.2344 89.6667 39.901 89.6667H36.0677V126.333H39.7344C43.901 126.333 45.0677 124.833 45.0677 120.5ZM129.12 157.833C105.12 157.833 89.6198 149 89.6198 123V2.66666H124.786V122.833C124.786 127.167 126.62 128.5 129.12 128.5C131.453 128.5 133.453 127.167 133.453 122.833V2.66666H168.62V123C168.62 149 152.953 157.833 129.12 157.833ZM251.448 2.66666V32H231.615V156H196.615V32H176.781V2.66666H251.448ZM331.378 2.66666V32H311.544V156H276.544V32H256.711V2.66666H331.378ZM394.898 32H374.732V64.3333H394.398V93.3333H374.732V126.667H394.898V156H339.565V2.66666H394.898V32ZM485.313 156H454.146L444.813 112.833H441.646H438.646V156H403.479V2.66666H450.146C476.479 2.66666 481.979 12 481.979 37.5V80.1667C481.979 91.1667 478.479 98.6667 472.979 103.667L485.313 156ZM438.646 31.8333V88H442.146C446.313 88 447.646 86.3333 447.646 82.1667V37.8333C447.646 33.5 446.313 31.8333 442.146 31.8333H438.646ZM548.703 32H528.703V66H548.703V95H528.703V156H493.37V2.66666H548.703V32ZM592.451 126.667H613.451V156H557.284V2.66666H592.451V126.667ZM661.049 2.66666H694.883L667.549 109.667V156H632.883V109.667L605.549 2.66666H639.383L649.216 61.8333H651.216L661.049 2.66666ZM785.609 32H765.443V64.3333H785.109V93.3333H765.443V126.667H785.609V156H730.276V2.66666H785.609V32ZM849.523 32H829.523V66H849.523V95H829.523V156H794.19V2.66666H849.523V32ZM913.438 32H893.438V66H913.438V95H893.438V156H858.104V2.66666H913.438V32ZM977.352 32H957.185V64.3333H976.852V93.3333H957.185V126.667H977.352V156H922.018V2.66666H977.352V32ZM1024.65 158.167C1000.65 158.167 985.151 149.5 985.151 123.333V35.6667C985.151 9.66666 1000.65 0.833326 1024.65 0.833326C1048.48 0.833326 1064.15 9.66666 1064.15 35.6667V74.3333H1028.98V35.8333C1028.98 31.5 1026.98 30.1667 1024.65 30.1667C1022.15 30.1667 1020.32 31.5 1020.32 35.8333V123.167C1020.32 127.667 1022.15 128.833 1024.65 128.833C1026.98 128.833 1028.98 127.667 1028.98 123.167V84.3333H1064.15V123.333C1064.15 149.5 1048.48 158.167 1024.65 158.167ZM1144.24 2.66666V32H1124.41V156H1089.41V32H1069.58V2.66666H1144.24Z" fill="#FAFAFA"/>
</svg>
