<svg width="1147" height="161" viewBox="0 0 1147 161" fill="none" xmlns="http://www.w3.org/2000/svg">
<path d="M68.901 79H67.901V79.5927L68.421 79.8773L68.901 79ZM1.90104 157H0.901042V158H1.90104V157ZM1.90104 3.66666V2.66666H0.901042V3.66666H1.90104ZM68.901 77L68.4538 76.1056L67.901 76.382V77H68.901ZM37.0677 33V32H36.0677V33H37.0677ZM37.0677 67.6667H36.0677V68.6667H37.0677V67.6667ZM37.0677 90.6667V89.6667H36.0677V90.6667H37.0677ZM37.0677 127.333H36.0677V128.333H37.0677V127.333ZM68.421 79.8773C72.6963 82.2165 75.6259 85.0871 77.4991 88.5771C79.3776 92.0771 80.2344 96.2762 80.2344 101.333H82.2344C82.2344 96.0571 81.3411 91.5062 79.2613 87.6313C77.1762 83.7463 73.9391 80.6168 69.3811 78.1227L68.421 79.8773ZM80.2344 101.333V122.167H82.2344V101.333H80.2344ZM80.2344 122.167C80.2344 134.928 78.8364 143.286 74.429 148.5C70.0656 153.662 62.5121 156 49.401 156V158C62.6233 158 70.9865 155.671 75.9564 149.791C80.8824 143.964 82.2344 134.905 82.2344 122.167H80.2344ZM49.401 156H1.90104V158H49.401V156ZM2.90104 157V3.66666H0.901042V157H2.90104ZM1.90104 4.66666H49.0677V2.66666H1.90104V4.66666ZM49.0677 4.66666C61.6689 4.66666 68.9707 7.00035 73.2121 12.1561C77.5041 17.3735 78.901 25.7402 78.901 38.5H80.901C80.901 25.7597 79.548 16.7099 74.7566 10.8855C69.9147 4.99964 61.7998 2.66666 49.0677 2.66666V4.66666ZM78.901 38.5V57H80.901V38.5H78.901ZM78.901 57C78.901 61.5111 78.3244 65.2493 76.7577 68.363C75.2035 71.452 72.628 74.0185 68.4538 76.1056L69.3483 77.8944C73.8408 75.6482 76.7652 72.798 78.5443 69.262C80.311 65.7507 80.901 61.6556 80.901 57H78.901ZM67.901 77V79H69.901V77H67.901ZM40.2344 32H37.0677V34H40.2344V32ZM36.0677 33V67.6667H38.0677V33H36.0677ZM37.0677 68.6667H40.401V66.6667H37.0677V68.6667ZM40.401 68.6667C42.6213 68.6667 44.3404 68.2966 45.4342 67.0876C46.5029 65.9064 46.7344 64.1751 46.7344 62.1667H44.7344C44.7344 64.1583 44.4659 65.1769 43.9512 65.7458C43.4617 66.2867 42.5141 66.6667 40.401 66.6667V68.6667ZM46.7344 62.1667V39H44.7344V62.1667H46.7344ZM46.7344 39C46.7344 36.8099 46.4559 34.9745 45.364 33.7188C44.237 32.4228 42.4818 32 40.2344 32V34C42.3202 34 43.3151 34.4105 43.8548 35.0312C44.4295 35.6921 44.7344 36.8567 44.7344 39H46.7344ZM47.0677 121.5V96.3333H45.0677V121.5H47.0677ZM47.0677 96.3333C47.0677 94.3441 46.8815 92.5867 45.8833 91.3668C44.8359 90.0866 43.1417 89.6667 40.901 89.6667V91.6667C42.9937 91.6667 43.8828 92.0801 44.3354 92.6332C44.8373 93.2466 45.0677 94.3226 45.0677 96.3333H47.0677ZM40.901 89.6667H37.0677V91.6667H40.901V89.6667ZM36.0677 90.6667V127.333H38.0677V90.6667H36.0677ZM37.0677 128.333H40.7344V126.333H37.0677V128.333ZM40.7344 128.333C42.8838 128.333 44.6009 127.958 45.7119 126.705C46.7906 125.488 47.0677 123.687 47.0677 121.5H45.0677C45.0677 123.647 44.7615 124.762 44.2152 125.378C43.7012 125.958 42.7517 126.333 40.7344 126.333V128.333ZM90.6198 3.66666V2.66666H89.6198V3.66666H90.6198ZM125.786 3.66666H126.786V2.66666H125.786V3.66666ZM134.453 3.66666V2.66666H133.453V3.66666H134.453ZM169.62 3.66666H170.62V2.66666H169.62V3.66666ZM130.12 157.833C118.211 157.833 108.607 155.636 101.992 150.383C95.4236 145.169 91.6198 136.794 91.6198 124H89.6198C89.6198 137.206 93.566 146.248 100.748 151.95C107.882 157.614 118.029 159.833 130.12 159.833V157.833ZM91.6198 124V3.66666H89.6198V124H91.6198ZM90.6198 4.66666H125.786V2.66666H90.6198V4.66666ZM124.786 3.66666V123.833H126.786V3.66666H124.786ZM124.786 123.833C124.786 126.115 125.265 127.817 126.265 128.953C127.29 130.115 128.695 130.5 130.12 130.5V128.5C129.044 128.5 128.283 128.218 127.766 127.631C127.224 127.016 126.786 125.885 126.786 123.833H124.786ZM130.12 130.5C131.476 130.5 132.867 130.108 133.903 128.963C134.923 127.835 135.453 126.136 135.453 123.833H133.453C133.453 125.864 132.983 126.998 132.42 127.621C131.873 128.226 131.097 128.5 130.12 128.5V130.5ZM135.453 123.833V3.66666H133.453V123.833H135.453ZM134.453 4.66666H169.62V2.66666H134.453V4.66666ZM168.62 3.66666V124H170.62V3.66666H168.62ZM168.62 124C168.62 136.79 164.777 145.166 158.187 150.383C151.549 155.636 141.944 157.833 130.12 157.833V159.833C142.129 159.833 152.274 157.614 159.428 151.951C166.63 146.25 170.62 137.21 170.62 124H168.62ZM252.448 3.66666H253.448V2.66666H252.448V3.66666ZM252.448 33V34H253.448V33H252.448ZM232.615 33V32H231.615V33H232.615ZM232.615 157V158H233.615V157H232.615ZM197.615 157H196.615V158H197.615V157ZM197.615 33H198.615V32H197.615V33ZM177.781 33H176.781V34H177.781V33ZM177.781 3.66666V2.66666H176.781V3.66666H177.781ZM251.448 3.66666V33H253.448V3.66666H251.448ZM252.448 32H232.615V34H252.448V32ZM231.615 33V157H233.615V33H231.615ZM232.615 156H197.615V158H232.615V156ZM198.615 157V33H196.615V157H198.615ZM197.615 32H177.781V34H197.615V32ZM178.781 33V3.66666H176.781V33H178.781ZM177.781 4.66666H252.448V2.66666H177.781V4.66666ZM332.378 3.66666H333.378V2.66666H332.378V3.66666ZM332.378 33V34H333.378V33H332.378ZM312.544 33V32H311.544V33H312.544ZM312.544 157V158H313.544V157H312.544ZM277.544 157H276.544V158H277.544V157ZM277.544 33H278.544V32H277.544V33ZM257.711 33H256.711V34H257.711V33ZM257.711 3.66666V2.66666H256.711V3.66666H257.711ZM331.378 3.66666V33H333.378V3.66666H331.378ZM332.378 32H312.544V34H332.378V32ZM311.544 33V157H313.544V33H311.544ZM312.544 156H277.544V158H312.544V156ZM278.544 157V33H276.544V157H278.544ZM277.544 32H257.711V34H277.544V32ZM258.711 33V3.66666H256.711V33H258.711ZM257.711 4.66666H332.378V2.66666H257.711V4.66666ZM395.898 33V34H396.898V33H395.898ZM375.732 33V32H374.732V33H375.732ZM375.732 65.3333H374.732V66.3333H375.732V65.3333ZM395.398 65.3333H396.398V64.3333H395.398V65.3333ZM395.398 94.3333V95.3333H396.398V94.3333H395.398ZM375.732 94.3333V93.3333H374.732V94.3333H375.732ZM375.732 127.667H374.732V128.667H375.732V127.667ZM395.898 127.667H396.898V126.667H395.898V127.667ZM395.898 157V158H396.898V157H395.898ZM340.565 157H339.565V158H340.565V157ZM340.565 3.66666V2.66666H339.565V3.66666H340.565ZM395.898 3.66666H396.898V2.66666H395.898V3.66666ZM395.898 32H375.732V34H395.898V32ZM374.732 33V65.3333H376.732V33H374.732ZM375.732 66.3333H395.398V64.3333H375.732V66.3333ZM394.398 65.3333V94.3333H396.398V65.3333H394.398ZM395.398 93.3333H375.732V95.3333H395.398V93.3333ZM374.732 94.3333V127.667H376.732V94.3333H374.732ZM375.732 128.667H395.898V126.667H375.732V128.667ZM394.898 127.667V157H396.898V127.667H394.898ZM395.898 156H340.565V158H395.898V156ZM341.565 157V3.66666H339.565V157H341.565ZM340.565 4.66666H395.898V2.66666H340.565V4.66666ZM394.898 3.66666V33H396.898V3.66666H394.898ZM486.312 157V158H487.576L487.286 156.771L486.312 157ZM455.146 157L454.168 157.211L454.339 158H455.146V157ZM445.812 113.833L446.79 113.622L446.619 112.833H445.812V113.833ZM439.646 113.833V112.833H438.646V113.833H439.646ZM439.646 157V158H440.646V157H439.646ZM404.479 157H403.479V158H404.479V157ZM404.479 3.66666V2.66666H403.479V3.66666H404.479ZM473.979 104.667L473.306 103.927L472.871 104.323L473.006 104.896L473.979 104.667ZM439.646 32.8333V31.8333H438.646V32.8333H439.646ZM439.646 89H438.646V90H439.646V89ZM486.312 156H455.146V158H486.312V156ZM456.123 156.789L446.79 113.622L444.835 114.045L454.168 157.211L456.123 156.789ZM445.812 112.833H442.646V114.833H445.812V112.833ZM442.646 112.833H439.646V114.833H442.646V112.833ZM438.646 113.833V157H440.646V113.833H438.646ZM439.646 156H404.479V158H439.646V156ZM405.479 157V3.66666H403.479V157H405.479ZM404.479 4.66666H451.146V2.66666H404.479V4.66666ZM451.146 4.66666C464.257 4.66666 471.81 7.00437 476.174 12.1664C480.581 17.3805 481.979 25.7386 481.979 38.5H483.979C483.979 25.7614 482.627 16.7028 477.701 10.8753C472.731 4.99561 464.368 2.66666 451.146 2.66666V4.66666ZM481.979 38.5V81.1667H483.979V38.5H481.979ZM481.979 81.1667C481.979 91.9351 478.564 99.1476 473.306 103.927L474.652 105.407C480.395 100.186 483.979 92.3982 483.979 81.1667H481.979ZM473.006 104.896L485.339 157.229L487.286 156.771L474.953 104.437L473.006 104.896ZM438.646 32.8333V89H440.646V32.8333H438.646ZM439.646 90H443.146V88H439.646V90ZM443.146 90C445.323 90 447.057 89.5716 448.198 88.3193C449.316 87.0917 449.646 85.3038 449.646 83.1667H447.646C447.646 85.1962 447.309 86.325 446.719 86.9723C446.152 87.5951 445.135 88 443.146 88V90ZM449.646 83.1667V38.8333H447.646V83.1667H449.646ZM449.646 38.8333C449.646 36.6202 449.318 34.7923 448.205 33.543C447.063 32.2617 445.323 31.8333 443.146 31.8333V33.8333C445.135 33.8333 446.146 34.2383 446.712 34.8737C447.307 35.541 447.646 36.7132 447.646 38.8333H449.646ZM443.146 31.8333H439.646V33.8333H443.146V31.8333ZM549.703 33V34H550.703V33H549.703ZM529.703 33V32H528.703V33H529.703ZM529.703 67H528.703V68H529.703V67ZM549.703 67H550.703V66H549.703V67ZM549.703 96V97H550.703V96H549.703ZM529.703 96V95H528.703V96H529.703ZM529.703 157V158H530.703V157H529.703ZM494.37 157H493.37V158H494.37V157ZM494.37 3.66666V2.66666H493.37V3.66666H494.37ZM549.703 3.66666H550.703V2.66666H549.703V3.66666ZM549.703 32H529.703V34H549.703V32ZM528.703 33V67H530.703V33H528.703ZM529.703 68H549.703V66H529.703V68ZM548.703 67V96H550.703V67H548.703ZM549.703 95H529.703V97H549.703V95ZM528.703 96V157H530.703V96H528.703ZM529.703 156H494.37V158H529.703V156ZM495.37 157V3.66666H493.37V157H495.37ZM494.37 4.66666H549.703V2.66666H494.37V4.66666ZM548.703 3.66666V33H550.703V3.66666H548.703ZM593.451 127.667H592.451V128.667H593.451V127.667ZM614.451 127.667H615.451V126.667H614.451V127.667ZM614.451 157V158H615.451V157H614.451ZM558.284 157H557.284V158H558.284V157ZM558.284 3.66666V2.66666H557.284V3.66666H558.284ZM593.451 3.66666H594.451V2.66666H593.451V3.66666ZM593.451 128.667H614.451V126.667H593.451V128.667ZM613.451 127.667V157H615.451V127.667H613.451ZM614.451 156H558.284V158H614.451V156ZM559.284 157V3.66666H557.284V157H559.284ZM558.284 4.66666H593.451V2.66666H558.284V4.66666ZM592.451 3.66666V127.667H594.451V3.66666H592.451ZM662.049 3.66666V2.66666H661.202L661.063 3.50271L662.049 3.66666ZM695.883 3.66666L696.852 3.91416L697.17 2.66666H695.883V3.66666ZM668.549 110.667L667.581 110.419L667.549 110.541V110.667H668.549ZM668.549 157V158H669.549V157H668.549ZM633.883 157H632.883V158H633.883V157ZM633.883 110.667H634.883V110.541L634.852 110.419L633.883 110.667ZM606.549 3.66666V2.66666H605.262L605.581 3.91416L606.549 3.66666ZM640.383 3.66666L641.369 3.50271L641.23 2.66666H640.383V3.66666ZM650.216 62.8333L649.23 62.9973L649.369 63.8333H650.216V62.8333ZM652.216 62.8333V63.8333H653.064L653.203 62.9973L652.216 62.8333ZM662.049 4.66666H695.883V2.66666H662.049V4.66666ZM694.914 3.41915L667.581 110.419L669.518 110.914L696.852 3.91416L694.914 3.41915ZM667.549 110.667V157H669.549V110.667H667.549ZM668.549 156H633.883V158H668.549V156ZM634.883 157V110.667H632.883V157H634.883ZM634.852 110.419L607.518 3.41915L605.581 3.91416L632.914 110.914L634.852 110.419ZM606.549 4.66666H640.383V2.66666H606.549V4.66666ZM639.396 3.83061L649.23 62.9973L651.203 62.6694L641.369 3.50271L639.396 3.83061ZM650.216 63.8333H652.216V61.8333H650.216V63.8333ZM653.203 62.9973L663.036 3.83061L661.063 3.50271L651.23 62.6694L653.203 62.9973ZM786.609 33V34H787.609V33H786.609ZM766.443 33V32H765.443V33H766.443ZM766.443 65.3333H765.443V66.3333H766.443V65.3333ZM786.109 65.3333H787.109V64.3333H786.109V65.3333ZM786.109 94.3333V95.3333H787.109V94.3333H786.109ZM766.443 94.3333V93.3333H765.443V94.3333H766.443ZM766.443 127.667H765.443V128.667H766.443V127.667ZM786.609 127.667H787.609V126.667H786.609V127.667ZM786.609 157V158H787.609V157H786.609ZM731.276 157H730.276V158H731.276V157ZM731.276 3.66666V2.66666H730.276V3.66666H731.276ZM786.609 3.66666H787.609V2.66666H786.609V3.66666ZM786.609 32H766.443V34H786.609V32ZM765.443 33V65.3333H767.443V33H765.443ZM766.443 66.3333H786.109V64.3333H766.443V66.3333ZM785.109 65.3333V94.3333H787.109V65.3333H785.109ZM786.109 93.3333H766.443V95.3333H786.109V93.3333ZM765.443 94.3333V127.667H767.443V94.3333H765.443ZM766.443 128.667H786.609V126.667H766.443V128.667ZM785.609 127.667V157H787.609V127.667H785.609ZM786.609 156H731.276V158H786.609V156ZM732.276 157V3.66666H730.276V157H732.276ZM731.276 4.66666H786.609V2.66666H731.276V4.66666ZM785.609 3.66666V33H787.609V3.66666H785.609ZM850.523 33V34H851.523V33H850.523ZM830.523 33V32H829.523V33H830.523ZM830.523 67H829.523V68H830.523V67ZM850.523 67H851.523V66H850.523V67ZM850.523 96V97H851.523V96H850.523ZM830.523 96V95H829.523V96H830.523ZM830.523 157V158H831.523V157H830.523ZM795.19 157H794.19V158H795.19V157ZM795.19 3.66666V2.66666H794.19V3.66666H795.19ZM850.523 3.66666H851.523V2.66666H850.523V3.66666ZM850.523 32H830.523V34H850.523V32ZM829.523 33V67H831.523V33H829.523ZM830.523 68H850.523V66H830.523V68ZM849.523 67V96H851.523V67H849.523ZM850.523 95H830.523V97H850.523V95ZM829.523 96V157H831.523V96H829.523ZM830.523 156H795.19V158H830.523V156ZM796.19 157V3.66666H794.19V157H796.19ZM795.19 4.66666H850.523V2.66666H795.19V4.66666ZM849.523 3.66666V33H851.523V3.66666H849.523ZM914.438 33V34H915.438V33H914.438ZM894.438 33V32H893.438V33H894.438ZM894.438 67H893.438V68H894.438V67ZM914.438 67H915.438V66H914.438V67ZM914.438 96V97H915.438V96H914.438ZM894.438 96V95H893.438V96H894.438ZM894.438 157V158H895.438V157H894.438ZM859.104 157H858.104V158H859.104V157ZM859.104 3.66666V2.66666H858.104V3.66666H859.104ZM914.438 3.66666H915.438V2.66666H914.438V3.66666ZM914.438 32H894.438V34H914.438V32ZM893.438 33V67H895.438V33H893.438ZM894.438 68H914.438V66H894.438V68ZM913.438 67V96H915.438V67H913.438ZM914.438 95H894.438V97H914.438V95ZM893.438 96V157H895.438V96H893.438ZM894.438 156H859.104V158H894.438V156ZM860.104 157V3.66666H858.104V157H860.104ZM859.104 4.66666H914.438V2.66666H859.104V4.66666ZM913.438 3.66666V33H915.438V3.66666H913.438ZM978.352 33V34H979.352V33H978.352ZM958.185 33V32H957.185V33H958.185ZM958.185 65.3333H957.185V66.3333H958.185V65.3333ZM977.852 65.3333H978.852V64.3333H977.852V65.3333ZM977.852 94.3333V95.3333H978.852V94.3333H977.852ZM958.185 94.3333V93.3333H957.185V94.3333H958.185ZM958.185 127.667H957.185V128.667H958.185V127.667ZM978.352 127.667H979.352V126.667H978.352V127.667ZM978.352 157V158H979.352V157H978.352ZM923.018 157H922.018V158H923.018V157ZM923.018 3.66666V2.66666H922.018V3.66666H923.018ZM978.352 3.66666H979.352V2.66666H978.352V3.66666ZM978.352 32H958.185V34H978.352V32ZM957.185 33V65.3333H959.185V33H957.185ZM958.185 66.3333H977.852V64.3333H958.185V66.3333ZM976.852 65.3333V94.3333H978.852V65.3333H976.852ZM977.852 93.3333H958.185V95.3333H977.852V93.3333ZM957.185 94.3333V127.667H959.185V94.3333H957.185ZM958.185 128.667H978.352V126.667H958.185V128.667ZM977.352 127.667V157H979.352V127.667H977.352ZM978.352 156H923.018V158H978.352V156ZM924.018 157V3.66666H922.018V157H924.018ZM923.018 4.66666H978.352V2.66666H923.018V4.66666ZM977.352 3.66666V33H979.352V3.66666H977.352ZM1065.15 75.3333V76.3333H1066.15V75.3333H1065.15ZM1029.98 75.3333H1028.98V76.3333H1029.98V75.3333ZM1029.98 85.3333V84.3333H1028.98V85.3333H1029.98ZM1065.15 85.3333H1066.15V84.3333H1065.15V85.3333ZM1025.65 158.167C1013.74 158.167 1004.14 156.01 997.521 150.778C990.956 145.585 987.151 137.212 987.151 124.333H985.151C985.151 137.621 989.096 146.665 996.281 152.347C1003.42 157.99 1013.56 160.167 1025.65 160.167V158.167ZM987.151 124.333V36.6667H985.151V124.333H987.151ZM987.151 36.6667C987.151 23.8728 990.955 15.4978 997.523 10.2832C1004.14 5.03083 1013.74 2.83333 1025.65 2.83333V0.833326C1013.56 0.833326 1003.41 3.05249 996.279 8.71682C989.097 14.4189 985.151 23.4605 985.151 36.6667H987.151ZM1025.65 2.83333C1037.48 2.83333 1047.08 5.03027 1053.72 10.2841C1060.31 15.5002 1064.15 23.8762 1064.15 36.6667H1066.15C1066.15 23.4571 1062.16 14.4164 1054.96 8.7159C1047.8 3.05305 1037.66 0.833326 1025.65 0.833326V2.83333ZM1064.15 36.6667V75.3333H1066.15V36.6667H1064.15ZM1065.15 74.3333H1029.98V76.3333H1065.15V74.3333ZM1030.98 75.3333V36.8333H1028.98V75.3333H1030.98ZM1030.98 36.8333C1030.98 34.5306 1030.45 32.8318 1029.43 31.7041C1028.4 30.5591 1027.01 30.1667 1025.65 30.1667V32.1667C1026.63 32.1667 1027.4 32.4409 1027.95 33.0459C1028.51 33.6682 1028.98 34.8027 1028.98 36.8333H1030.98ZM1025.65 30.1667C1024.23 30.1667 1022.82 30.5512 1021.8 31.714C1020.8 32.8492 1020.32 34.5517 1020.32 36.8333H1022.32C1022.32 34.7817 1022.76 33.6508 1023.3 33.036C1023.81 32.4488 1024.58 32.1667 1025.65 32.1667V30.1667ZM1020.32 36.8333V124.167H1022.32V36.8333H1020.32ZM1020.32 124.167C1020.32 126.52 1020.79 128.235 1021.8 129.357C1022.84 130.507 1024.26 130.833 1025.65 130.833V128.833C1024.54 128.833 1023.79 128.576 1023.29 128.018C1022.76 127.431 1022.32 126.313 1022.32 124.167H1020.32ZM1025.65 130.833C1026.98 130.833 1028.38 130.5 1029.43 129.367C1030.46 128.252 1030.98 126.541 1030.98 124.167H1028.98C1028.98 126.292 1028.51 127.414 1027.96 128.008C1027.43 128.583 1026.66 128.833 1025.65 128.833V130.833ZM1030.98 124.167V85.3333H1028.98V124.167H1030.98ZM1029.98 86.3333H1065.15V84.3333H1029.98V86.3333ZM1064.15 85.3333V124.333H1066.15V85.3333H1064.15ZM1064.15 124.333C1064.15 137.209 1060.31 145.583 1053.72 150.777C1047.08 156.01 1037.48 158.167 1025.65 158.167V160.167C1037.66 160.167 1047.8 157.99 1054.96 152.348C1062.16 146.667 1066.15 137.624 1066.15 124.333H1064.15ZM1145.24 3.66666H1146.24V2.66666H1145.24V3.66666ZM1145.24 33V34H1146.24V33H1145.24ZM1125.41 33V32H1124.41V33H1125.41ZM1125.41 157V158H1126.41V157H1125.41ZM1090.41 157H1089.41V158H1090.41V157ZM1090.41 33H1091.41V32H1090.41V33ZM1070.58 33H1069.58V34H1070.58V33ZM1070.58 3.66666V2.66666H1069.58V3.66666H1070.58ZM1144.24 3.66666V33H1146.24V3.66666H1144.24ZM1145.24 32H1125.41V34H1145.24V32ZM1124.41 33V157H1126.41V33H1124.41ZM1125.41 156H1090.41V158H1125.41V156ZM1091.41 157V33H1089.41V157H1091.41ZM1090.41 32H1070.58V34H1090.41V32ZM1071.58 33V3.66666H1069.58V33H1071.58ZM1070.58 4.66666H1145.24V2.66666H1070.58V4.66666Z" fill="#737373"/>
</svg>
