<svg width="60" height="62" viewBox="0 0 60 62" fill="none" xmlns="http://www.w3.org/2000/svg">
<path d="M0 10C0 4.47715 4.47715 0 10 0H50C55.5228 0 60 4.47715 60 10V52C60 57.5228 55.5228 62 50 62H10C4.47715 62 0 57.5228 0 52V10Z" fill="#E31C25"/>
<path d="M29.9998 25.8332C28.978 25.8332 27.979 26.1362 27.1294 26.7039C26.2797 27.2716 25.6175 28.0786 25.2265 29.0226C24.8354 29.9667 24.7331 31.0056 24.9324 32.0078C25.1318 33.01 25.6239 33.9307 26.3465 34.6532C27.069 35.3758 27.9896 35.8679 28.9919 36.0672C29.9941 36.2666 31.0329 36.1643 31.977 35.7732C32.9211 35.3822 33.728 34.7199 34.2958 33.8703C34.8635 33.0206 35.1665 32.0217 35.1665 30.9998C35.1665 30.3213 35.0329 29.6495 34.7732 29.0226C34.5136 28.3958 34.133 27.8262 33.6532 27.3465C33.1735 26.8667 32.6039 26.4861 31.977 26.2265C31.3502 25.9668 30.6783 25.8332 29.9998 25.8332ZM50.6873 20.729C50.6764 19.1202 50.3801 17.526 49.8123 16.0207C49.3942 14.9191 48.7472 13.9188 47.914 13.0856C47.0809 12.2525 46.0805 11.6055 44.979 11.1873C43.4736 10.6196 41.8795 10.3233 40.2707 10.3123C37.5832 10.1665 36.7915 10.1665 29.9998 10.1665C23.2082 10.1665 22.4165 10.1665 19.729 10.3123C18.1202 10.3233 16.526 10.6196 15.0207 11.1873C13.9191 11.6055 12.9188 12.2525 12.0856 13.0856C11.2525 13.9188 10.6055 14.9191 10.1873 16.0207C9.61955 17.526 9.3233 19.1202 9.31234 20.729C9.1665 23.4165 9.1665 24.2082 9.1665 30.9998C9.1665 37.7915 9.1665 38.5832 9.31234 41.2707C9.33476 42.8852 9.63062 44.4842 10.1873 45.9998C10.6036 47.0963 11.2501 48.0909 12.0832 48.9165C12.9127 49.7546 13.9152 50.4016 15.0207 50.8123C16.526 51.3801 18.1202 51.6764 19.729 51.6873C22.4165 51.8332 23.2082 51.8332 29.9998 51.8332C36.7915 51.8332 37.5832 51.8332 40.2707 51.6873C41.8795 51.6764 43.4736 51.3801 44.979 50.8123C46.0844 50.4016 47.0869 49.7546 47.9165 48.9165C48.7496 48.0909 49.396 47.0963 49.8123 45.9998C50.3796 44.4871 50.6758 42.8862 50.6873 41.2707C50.8332 38.5832 50.8332 37.7915 50.8332 30.9998C50.8332 24.2082 50.8332 23.4165 50.6873 20.729ZM45.3957 37.3957C45.3288 38.6813 45.0544 39.9477 44.5832 41.1457C44.1787 42.145 43.5775 43.0528 42.8152 43.8152C42.0528 44.5775 41.145 45.1787 40.1457 45.5832C38.9363 46.0282 37.6629 46.2744 36.3748 46.3123C34.729 46.3123 34.2915 46.3123 29.9998 46.3123C25.7082 46.3123 25.2707 46.3123 23.6248 46.3123C22.3368 46.2744 21.0634 46.0282 19.854 45.5832C18.8209 45.1992 17.8879 44.5868 17.1248 43.7915C16.37 43.0441 15.787 42.1412 15.4165 41.1457C14.9697 39.9376 14.7303 38.6627 14.7082 37.3748C14.7082 35.729 14.7082 35.2915 14.7082 30.9998C14.7082 26.7082 14.7082 26.2707 14.7082 24.6248C14.7303 23.337 14.9697 22.0621 15.4165 20.854C15.8004 19.8209 16.4129 18.8879 17.2082 18.1248C17.9589 17.3741 18.8608 16.7917 19.854 16.4165C21.0634 15.9715 22.3368 15.7253 23.6248 15.6873C25.2707 15.6873 25.7082 15.6873 29.9998 15.6873C34.2915 15.6873 34.729 15.6873 36.3748 15.6873C37.6629 15.7253 38.9363 15.9715 40.1457 16.4165C41.1788 16.8004 42.1118 17.4129 42.8748 18.2082C43.6297 18.9556 44.2127 19.8584 44.5832 20.854C45.0282 22.0634 45.2744 23.3368 45.3123 24.6248C45.3123 26.2707 45.3123 26.7082 45.3123 30.9998C45.3123 35.2915 45.4582 35.729 45.3957 37.3748V37.3957ZM42.0623 21.8957C41.8143 21.2227 41.4232 20.6116 40.9161 20.1044C40.4089 19.5973 39.7978 19.2062 39.1248 18.9582C38.2008 18.6379 37.2276 18.4827 36.2498 18.4998C34.6248 18.4998 34.1665 18.4998 29.9998 18.4998C25.8332 18.4998 25.3748 18.4998 23.7498 18.4998C22.7671 18.5094 21.7937 18.6928 20.8748 19.0415C20.2122 19.2783 19.6075 19.6534 19.1011 20.1419C18.5946 20.6304 18.1979 21.2212 17.9373 21.8748C17.6348 22.8027 17.487 23.774 17.4998 24.7498C17.4998 26.3748 17.4998 26.8332 17.4998 30.9998C17.4998 35.1665 17.4998 35.6248 17.4998 37.2498C17.5205 38.2315 17.7035 39.203 18.0415 40.1248C18.2896 40.7978 18.6806 41.4089 19.1878 41.9161C19.6949 42.4232 20.3061 42.8143 20.979 43.0623C21.8679 43.3892 22.8033 43.5721 23.7498 43.604C25.3748 43.604 25.8332 43.604 29.9998 43.604C34.1665 43.604 34.6248 43.604 36.2498 43.604C37.2326 43.5944 38.2059 43.411 39.1248 43.0623C39.7978 42.8143 40.4089 42.4232 40.9161 41.9161C41.4232 41.4089 41.8143 40.7978 42.0623 40.1248C42.411 39.2059 42.5944 38.2326 42.604 37.2498C42.604 35.6248 42.604 35.1665 42.604 30.9998C42.604 26.8332 42.604 26.3748 42.604 24.7498C42.6046 23.7661 42.4209 22.7909 42.0623 21.8748V21.8957ZM29.9998 38.9582C28.9557 38.9582 27.9218 38.7522 26.9575 38.352C25.9931 37.9518 25.1171 37.3652 24.3798 36.626C23.6425 35.8867 23.0582 35.0092 22.6606 34.0438C22.2629 33.0784 22.0596 32.044 22.0623 30.9998C22.0623 29.4249 22.5296 27.8855 23.405 26.5763C24.2804 25.2671 25.5246 24.2471 26.98 23.6453C28.4354 23.0436 30.0366 22.8872 31.5809 23.196C33.1253 23.5047 34.5433 24.2648 35.6554 25.3799C36.7676 26.4949 37.5239 27.9149 37.8286 29.4601C38.1333 31.0052 37.9728 32.606 37.3672 34.0598C36.7617 35.5136 35.7384 36.7551 34.4269 37.6271C33.1154 38.4991 31.5747 38.9623 29.9998 38.9582ZM38.3332 24.604C37.8726 24.5553 37.4464 24.3378 37.1367 23.9935C36.8269 23.6493 36.6555 23.2025 36.6555 22.7394C36.6555 22.2763 36.8269 21.8296 37.1367 21.4853C37.4464 21.141 37.8726 20.9236 38.3332 20.8748C38.7937 20.9236 39.2199 21.141 39.5297 21.4853C39.8394 21.8296 40.0108 22.2763 40.0108 22.7394C40.0108 23.2025 39.8394 23.6493 39.5297 23.9935C39.2199 24.3378 38.7937 24.5553 38.3332 24.604Z" fill="#161616"/>
</svg>
