<svg width="61" height="62" viewBox="0 0 61 62" fill="none" xmlns="http://www.w3.org/2000/svg">
<rect x="1.62128" y="0.75" width="58.5" height="60.5" rx="9.25" fill="#FAFAFA"/>
<rect x="1.62128" y="0.75" width="58.5" height="60.5" rx="9.25" stroke="#E31C25" stroke-width="1.5"/>
<path d="M30.8713 25.8332C29.8494 25.8332 28.8505 26.1362 28.0008 26.7039C27.1512 27.2716 26.489 28.0786 26.0979 29.0226C25.7069 29.9667 25.6045 31.0056 25.8039 32.0078C26.0032 33.01 26.4953 33.9307 27.2179 34.6532C27.9405 35.3758 28.8611 35.8679 29.8633 36.0672C30.8656 36.2666 31.9044 36.1643 32.8485 35.7732C33.7926 35.3822 34.5995 34.7199 35.1672 33.8703C35.7349 33.0206 36.0379 32.0217 36.0379 30.9998C36.0379 30.3213 35.9043 29.6495 35.6447 29.0226C35.385 28.3958 35.0044 27.8262 34.5247 27.3465C34.0449 26.8667 33.4753 26.4861 32.8485 26.2265C32.2216 25.9668 31.5498 25.8332 30.8713 25.8332ZM51.5588 20.729C51.5478 19.1202 51.2516 17.526 50.6838 16.0207C50.2656 14.9191 49.6186 13.9188 48.7855 13.0856C47.9523 12.2525 46.952 11.6055 45.8504 11.1873C44.3451 10.6196 42.751 10.3233 41.1421 10.3123C38.4546 10.1665 37.6629 10.1665 30.8713 10.1665C24.0796 10.1665 23.2879 10.1665 20.6004 10.3123C18.9916 10.3233 17.3975 10.6196 15.8921 11.1873C14.7906 11.6055 13.7902 12.2525 12.9571 13.0856C12.1239 13.9188 11.4769 14.9191 11.0588 16.0207C10.491 17.526 10.1947 19.1202 10.1838 20.729C10.0379 23.4165 10.0379 24.2082 10.0379 30.9998C10.0379 37.7915 10.0379 38.5832 10.1838 41.2707C10.2062 42.8852 10.5021 44.4842 11.0588 45.9998C11.4751 47.0963 12.1216 48.0909 12.9546 48.9165C13.7842 49.7546 14.7867 50.4016 15.8921 50.8123C17.3975 51.3801 18.9916 51.6764 20.6004 51.6873C23.2879 51.8332 24.0796 51.8332 30.8713 51.8332C37.6629 51.8332 38.4546 51.8332 41.1421 51.6873C42.751 51.6764 44.3451 51.3801 45.8504 50.8123C46.9559 50.4016 47.9584 49.7546 48.7879 48.9165C49.621 48.0909 50.2675 47.0963 50.6838 45.9998C51.251 44.4871 51.5472 42.8862 51.5588 41.2707C51.7046 38.5832 51.7046 37.7915 51.7046 30.9998C51.7046 24.2082 51.7046 23.4165 51.5588 20.729ZM46.2671 37.3957C46.2003 38.6813 45.9259 39.9477 45.4546 41.1457C45.0502 42.145 44.4489 43.0528 43.6866 43.8152C42.9243 44.5775 42.0165 45.1787 41.0171 45.5832C39.8078 46.0282 38.5343 46.2744 37.2463 46.3123C35.6004 46.3123 35.1629 46.3123 30.8713 46.3123C26.5796 46.3123 26.1421 46.3123 24.4963 46.3123C23.2082 46.2744 21.9348 46.0282 20.7254 45.5832C19.6923 45.1992 18.7594 44.5868 17.9963 43.7915C17.2414 43.0441 16.6585 42.1412 16.2879 41.1457C15.8412 39.9376 15.6017 38.6627 15.5796 37.3748C15.5796 35.729 15.5796 35.2915 15.5796 30.9998C15.5796 26.7082 15.5796 26.2707 15.5796 24.6248C15.6017 23.337 15.8412 22.0621 16.2879 20.854C16.6719 19.8209 17.2844 18.8879 18.0796 18.1248C18.8303 17.3741 19.7322 16.7917 20.7254 16.4165C21.9348 15.9715 23.2082 15.7253 24.4963 15.6873C26.1421 15.6873 26.5796 15.6873 30.8713 15.6873C35.1629 15.6873 35.6004 15.6873 37.2463 15.6873C38.5343 15.7253 39.8078 15.9715 41.0171 16.4165C42.0502 16.8004 42.9832 17.4129 43.7463 18.2082C44.5011 18.9556 45.0841 19.8584 45.4546 20.854C45.8996 22.0634 46.1458 23.3368 46.1838 24.6248C46.1838 26.2707 46.1838 26.7082 46.1838 30.9998C46.1838 35.2915 46.3296 35.729 46.2671 37.3748V37.3957ZM42.9338 21.8957C42.6857 21.2227 42.2946 20.6116 41.7875 20.1044C41.2804 19.5973 40.6692 19.2062 39.9963 18.9582C39.0723 18.6379 38.0991 18.4827 37.1213 18.4998C35.4963 18.4998 35.0379 18.4998 30.8713 18.4998C26.7046 18.4998 26.2463 18.4998 24.6213 18.4998C23.6385 18.5094 22.6652 18.6928 21.7463 19.0415C21.0836 19.2783 20.479 19.6534 19.9725 20.1419C19.466 20.6304 19.0693 21.2212 18.8088 21.8748C18.5062 22.8027 18.3584 23.774 18.3713 24.7498C18.3713 26.3748 18.3713 26.8332 18.3713 30.9998C18.3713 35.1665 18.3713 35.6248 18.3713 37.2498C18.3919 38.2315 18.575 39.203 18.9129 40.1248C19.161 40.7978 19.5521 41.4089 20.0592 41.9161C20.5664 42.4232 21.1775 42.8143 21.8504 43.0623C22.7393 43.3892 23.6747 43.5721 24.6213 43.604C26.2463 43.604 26.7046 43.604 30.8713 43.604C35.0379 43.604 35.4963 43.604 37.1213 43.604C38.1041 43.5944 39.0774 43.411 39.9963 43.0623C40.6692 42.8143 41.2804 42.4232 41.7875 41.9161C42.2946 41.4089 42.6857 40.7978 42.9338 40.1248C43.2825 39.2059 43.4658 38.2326 43.4754 37.2498C43.4754 35.6248 43.4754 35.1665 43.4754 30.9998C43.4754 26.8332 43.4754 26.3748 43.4754 24.7498C43.476 23.7661 43.2923 22.7909 42.9338 21.8748V21.8957ZM30.8713 38.9582C29.8272 38.9582 28.7933 38.7522 27.8289 38.352C26.8645 37.9518 25.9886 37.3652 25.2512 36.626C24.5139 35.8867 23.9297 35.0092 23.532 34.0438C23.1343 33.0784 22.931 32.044 22.9338 30.9998C22.9338 29.4249 23.4011 27.8855 24.2765 26.5763C25.1519 25.2671 26.396 24.2471 27.8514 23.6453C29.3068 23.0436 30.9081 22.8872 32.4524 23.196C33.9967 23.5047 35.4147 24.2648 36.5269 25.3799C37.639 26.4949 38.3953 27.9149 38.7001 29.4601C39.0048 31.0052 38.8442 32.606 38.2387 34.0598C37.6331 35.5136 36.6098 36.7551 35.2984 37.6271C33.9869 38.4991 32.4462 38.9623 30.8713 38.9582ZM39.2046 24.604C38.7441 24.5553 38.3179 24.3378 38.0081 23.9935C37.6984 23.6493 37.527 23.2025 37.527 22.7394C37.527 22.2763 37.6984 21.8296 38.0081 21.4853C38.3179 21.141 38.7441 20.9236 39.2046 20.8748C39.6651 20.9236 40.0914 21.141 40.4011 21.4853C40.7109 21.8296 40.8822 22.2763 40.8822 22.7394C40.8822 23.2025 40.7109 23.6493 40.4011 23.9935C40.0914 24.3378 39.6651 24.5553 39.2046 24.604Z" fill="#161616"/>
</svg>
