<svg width="60" height="62" viewBox="0 0 60 62" fill="none" xmlns="http://www.w3.org/2000/svg">
<path d="M0 10C0 4.47715 4.47715 0 10 0H50C55.5228 0 60 4.47715 60 10V52C60 57.5228 55.5228 62 50 62H10C4.47715 62 0 57.5228 0 52V10Z" fill="#E31C25"/>
<g clip-path="url(#clip0_567_31426)">
<path d="M47.8985 10H12.1034C10.3893 10 9 11.3468 9 13.0091V48.9895C9 50.6518 10.3897 52 12.1034 52H47.8985C49.6126 52 51 50.6513 51 48.9895V13.0091C51 11.3473 49.6126 10 47.8985 10ZM21.7331 45.1568H15.3873V26.1943H21.7331V45.1568ZM18.5607 23.6038H18.5182C16.3902 23.6038 15.0107 22.1483 15.0107 20.3264C15.0107 18.4677 16.4308 17.0518 18.6008 17.0518C20.7713 17.0518 22.1065 18.4672 22.1485 20.3264C22.1485 22.1487 20.7718 23.6038 18.5607 23.6038ZM44.6085 45.1568H38.2645V35.0115C38.2645 32.4616 37.3452 30.7223 35.051 30.7223C33.2959 30.7223 32.2543 31.896 31.7969 33.0286C31.6271 33.4337 31.5855 33.9993 31.5855 34.5649V45.1563H25.2425C25.2425 45.1563 25.3256 27.9723 25.2425 26.1938H31.586V28.8823C32.4283 27.5905 33.9329 25.7477 37.3022 25.7477C41.4776 25.7477 44.6085 28.4562 44.6085 34.2835V45.1568ZM31.5449 28.9425C31.5561 28.9247 31.5711 28.9028 31.586 28.8823V28.9425H31.5449Z" fill="black"/>
</g>
<defs>
<clipPath id="clip0_567_31426">
<rect x="9" y="10" width="42" height="42" rx="8" fill="white"/>
</clipPath>
</defs>
</svg>
