<svg width="60" height="62" viewBox="0 0 60 62" fill="none" xmlns="http://www.w3.org/2000/svg">
<rect width="60" height="62" rx="10" fill="#E31C25"/>
<path d="M30 29.1406L49.9688 16.3125C49.1659 15.7103 48.191 15.3817 47.1875 15.375H12.8125C11.809 15.3817 10.8341 15.7103 10.0312 16.3125L30 29.1406Z" fill="#161616"/>
<path d="M30.8438 32.3125L30.5781 32.4375H30.4531C30.3093 32.5018 30.1565 32.5439 30 32.5625C29.8703 32.5788 29.7391 32.5788 29.6094 32.5625H29.4844L29.2188 32.4375L8.28125 18.9062C8.18122 19.2837 8.12873 19.6721 8.125 20.0625V41.9375C8.125 43.1807 8.61886 44.373 9.49794 45.2521C10.377 46.1311 11.5693 46.625 12.8125 46.625H47.1875C48.4307 46.625 49.623 46.1311 50.5021 45.2521C51.3811 44.373 51.875 43.1807 51.875 41.9375V20.0625C51.8713 19.6721 51.8188 19.2837 51.7188 18.9062L30.8438 32.3125Z" fill="#161616"/>
</svg>
