<svg width="61" height="62" viewBox="0 0 61 62" fill="none" xmlns="http://www.w3.org/2000/svg">
<rect x="1.62128" y="0.75" width="58.5" height="60.5" rx="9.25" fill="#FAFAFA"/>
<rect x="1.62128" y="0.75" width="58.5" height="60.5" rx="9.25" stroke="#E31C25" stroke-width="1.5"/>
<path d="M30.8713 29.1406L50.84 16.3125C50.0372 15.7103 49.0623 15.3817 48.0588 15.375H13.6838C12.6802 15.3817 11.7053 15.7103 10.9025 16.3125L30.8713 29.1406Z" fill="#161616"/>
<path d="M31.715 32.3125L31.4494 32.4375H31.3244C31.1805 32.5018 31.0278 32.5439 30.8713 32.5625C30.7416 32.5788 30.6103 32.5788 30.4807 32.5625H30.3557L30.09 32.4375L9.15253 18.9062C9.05249 19.2837 9 19.6721 8.99628 20.0625V41.9375C8.99628 43.1807 9.49014 44.373 10.3692 45.2521C11.2483 46.1311 12.4406 46.625 13.6838 46.625H48.0588C49.302 46.625 50.4943 46.1311 51.3733 45.2521C52.2524 44.373 52.7463 43.1807 52.7463 41.9375V20.0625C52.7425 19.6721 52.6901 19.2837 52.59 18.9062L31.715 32.3125Z" fill="#161616"/>
</svg>
