<svg width="193" height="33" viewBox="0 0 193 33" fill="none" xmlns="http://www.w3.org/2000/svg">
<g id="Layer 2">
<g id="Layer 1">
<path id="Vector" d="M57.2404 15.8121V0.848808C57.2404 0.654479 57.2404 0.460151 57.2555 0.267981C57.2588 0.202272 57.2869 0.140272 57.3343 0.09456C57.3816 0.0488477 57.4445 0.0228466 57.5103 0.021832C57.6611 0.00923083 57.8124 0.00418637 57.9637 0.00671753C63.1237 0.00671753 68.2838 -0.00839691 73.4439 0.00671753C75.4119 -0.00755839 77.365 0.347662 79.202 1.05393C80.4279 1.53562 81.5648 2.21869 82.5657 3.07495C83.7592 4.1111 84.7465 5.36299 85.4761 6.76503C85.993 7.75924 86.4082 8.80312 86.7154 9.88077C86.9573 10.7534 87.1441 11.6405 87.2746 12.5366C87.4058 13.368 87.4737 14.2082 87.4775 15.0499C87.5179 16.4526 87.4457 17.8563 87.2616 19.2474C87.0659 20.703 86.682 22.127 86.1195 23.4838C85.0504 26.0796 83.1261 28.2318 80.6658 29.5835C79.1818 30.3801 77.5853 30.9465 75.9311 31.2634C74.3398 31.5623 72.7223 31.6983 71.1035 31.6693C66.7638 31.6823 62.4242 31.6693 58.0846 31.6693C57.8903 31.6693 57.696 31.6693 57.5038 31.6585C57.471 31.6591 57.4384 31.6532 57.408 31.6411C57.3775 31.629 57.3497 31.611 57.3262 31.5881C57.3027 31.5652 57.284 31.5379 57.2711 31.5077C57.2582 31.4776 57.2515 31.4452 57.2512 31.4124C57.2382 31.218 57.2404 31.0237 57.2404 30.8294V15.8121ZM66.9733 15.8121V22.6741C66.9733 22.8468 66.9733 23.0195 66.9733 23.1923C66.9707 23.2411 66.9778 23.29 66.9942 23.3361C67.0107 23.3822 67.0361 23.4245 67.069 23.4607C67.102 23.4968 67.1418 23.5261 67.1861 23.5467C67.2305 23.5674 67.2785 23.579 67.3274 23.5809C67.434 23.5946 67.5416 23.5997 67.649 23.596C68.9445 23.5723 70.2399 23.6435 71.5353 23.5313C72.3303 23.4786 73.1134 23.3114 73.8606 23.0346C74.8461 22.6407 75.6991 21.9741 76.3197 21.113C76.9442 20.2273 77.3571 19.2101 77.5266 18.1397C77.7588 16.9092 77.8061 15.6509 77.6669 14.4065C77.5369 13.0219 77.0123 11.7038 76.1556 10.6084C75.0761 9.26108 73.6317 8.56149 71.9585 8.29591C71.2559 8.18384 70.5454 8.12896 69.834 8.13181H67.7009C66.9646 8.13181 66.9625 8.13181 66.9625 8.88969C66.9682 11.1986 66.9718 13.5061 66.9733 15.8121Z" fill="#E90028"/>
<path id="Vector_2" d="M28.9698 15.8985V1.1965C28.9698 0.958984 28.9698 0.721471 28.9698 0.483958C28.9849 0.119053 29.0648 0.0521172 29.4469 0.0326843C29.5549 0.0326843 29.6628 0.0326843 29.7708 0.0326843H54.8392C54.9903 0.0326843 55.1436 0.0326843 55.2926 0.0326843C55.5193 0.0477988 55.5862 0.116893 55.6013 0.360884C55.6013 0.488277 55.6013 0.617829 55.6013 0.747382V7.48411C55.6013 7.59207 55.6013 7.70003 55.6013 7.80799C55.5862 8.11243 55.5279 8.17073 55.2041 8.18801C55.0097 8.18801 54.8154 8.18801 54.6211 8.18801H39.5403C39.346 8.18801 39.1517 8.18801 38.9574 8.18801C38.8922 8.19175 38.8308 8.21976 38.7853 8.26651C38.7397 8.31327 38.7133 8.37539 38.7113 8.44063C38.708 8.48376 38.708 8.52706 38.7113 8.57019C38.7113 9.60661 38.7113 10.643 38.7113 11.6794C38.7113 11.9817 38.7847 12.0422 39.1042 12.0551C39.2985 12.0551 39.4928 12.0551 39.6872 12.0551H54.7787C54.973 12.0551 55.1674 12.0551 55.3617 12.0551C55.3942 12.0548 55.4264 12.0611 55.4563 12.0737C55.4863 12.0863 55.5133 12.105 55.5358 12.1284C55.5582 12.1519 55.5756 12.1798 55.5869 12.2102C55.5982 12.2407 55.6031 12.2732 55.6013 12.3056C55.6013 12.433 55.6013 12.5647 55.6013 12.6921C55.6013 14.7865 55.6013 16.881 55.6013 18.9754C55.6013 19.5778 55.6488 19.6232 54.973 19.6232C51.2178 19.6232 47.4625 19.6232 43.7073 19.6232H39.441C39.2899 19.6232 39.1388 19.6232 38.9876 19.6361C38.802 19.6512 38.7307 19.7311 38.7113 19.9276C38.7113 20.014 38.7113 20.1003 38.7113 20.1867V22.9073C38.7091 23.0154 38.7135 23.1236 38.7242 23.2312C38.7239 23.2693 38.7313 23.307 38.7459 23.3421C38.7605 23.3773 38.7821 23.4091 38.8093 23.4357C38.8365 23.4623 38.8688 23.4832 38.9043 23.497C38.9398 23.5108 38.9777 23.5174 39.0157 23.5162C39.2316 23.5313 39.4475 23.5313 39.6634 23.5313H54.6902C54.9061 23.5313 55.122 23.5313 55.3379 23.5464C55.5538 23.5616 55.5992 23.6479 55.6143 23.8401C55.6143 23.9696 55.6143 24.0992 55.6143 24.2287C55.6143 26.4959 55.6143 28.7631 55.6143 31.0302C55.6143 31.1166 55.6143 31.203 55.6143 31.2894C55.6013 31.596 55.5473 31.6478 55.2192 31.6629C55.0486 31.6629 54.8759 31.6629 54.7032 31.6629H29.8895C29.6736 31.6629 29.4577 31.6629 29.2418 31.6478C29.1753 31.6484 29.1113 31.623 29.0633 31.577C29.0153 31.531 28.9871 31.4681 28.9849 31.4016C28.9698 31.1857 28.9698 30.9698 28.9676 30.7539L28.9698 15.8985Z" fill="#E90028"/>
<path id="Vector_3" d="M13.7811 0.0303161H26.6618C27.5017 0.0303161 27.4434 -0.0258232 27.4434 0.788197C27.4434 3.01218 27.4434 5.23544 27.4434 7.45798C27.4434 8.24609 27.4434 8.19859 26.6964 8.19859H19.4507C19.2564 8.19859 19.0621 8.19859 18.8678 8.21155C18.8025 8.2138 18.7407 8.24147 18.6955 8.28867C18.6503 8.33586 18.6254 8.39884 18.626 8.46417C18.626 8.68009 18.626 8.89602 18.626 9.11194C18.626 16.341 18.626 23.5707 18.626 30.8012C18.626 31.0171 18.626 31.233 18.626 31.4489C18.6259 31.4836 18.6185 31.5178 18.6043 31.5494C18.5901 31.581 18.5693 31.6092 18.5434 31.6323C18.5176 31.6553 18.4871 31.6726 18.4541 31.6831C18.421 31.6935 18.3862 31.6969 18.3518 31.6929C18.2244 31.6929 18.0927 31.6929 17.9653 31.6929H9.54511C8.86718 31.6929 8.87581 31.6929 8.87797 31.0084V9.13569C8.87797 8.91977 8.87797 8.70385 8.85854 8.48793C8.8577 8.45021 8.84944 8.41303 8.83422 8.37851C8.81901 8.34399 8.79714 8.3128 8.76988 8.28674C8.74261 8.26067 8.71047 8.24023 8.67531 8.22659C8.64014 8.21295 8.60262 8.20637 8.56491 8.20723C8.39219 8.19427 8.21947 8.20723 8.04675 8.20723H0.798905C6.6616e-05 8.20723 6.65983e-05 8.20723 6.65983e-05 7.42344C6.65983e-05 5.22393 6.65983e-05 3.02298 6.65983e-05 0.820585C6.65983e-05 0.0130424 -0.0258417 0.0281569 0.768679 0.0281569L13.7811 0.0303161Z" fill="#E90028"/>
<path id="Vector_4" d="M104.98 19.5902C103.946 19.5902 102.909 19.5902 101.873 19.5902C101.746 19.6017 101.619 19.5738 101.509 19.5104C101.399 19.4471 101.311 19.3513 101.258 19.2361C100.554 18.027 99.8176 16.8437 99.0986 15.6367C98.9756 15.4337 98.8503 15.2329 98.7143 15.0408C98.6954 15.001 98.6655 14.9674 98.6283 14.9439C98.591 14.9204 98.5479 14.9079 98.5038 14.9079C98.4597 14.9079 98.4166 14.9204 98.3793 14.9439C98.3421 14.9674 98.3122 15.001 98.2933 15.0408C98.1076 15.3323 97.9371 15.6324 97.7622 15.9304L96.1559 18.6596C96.0263 18.8755 95.9011 19.1087 95.7651 19.329C95.7162 19.4134 95.6444 19.4823 95.5581 19.5277C95.4718 19.5732 95.3744 19.5934 95.2771 19.5859C94.9101 19.5859 94.5431 19.5859 94.176 19.5859H89.2492C89.0767 19.5874 88.9044 19.578 88.7331 19.5578C88.7114 19.5556 88.6905 19.5478 88.6726 19.5354C88.6546 19.5229 88.6401 19.506 88.6304 19.4864C88.6207 19.4668 88.6161 19.445 88.6171 19.4231C88.6181 19.4013 88.6246 19.38 88.636 19.3613C88.7026 19.2263 88.7791 19.0964 88.8648 18.9727C89.7472 17.6772 90.6302 16.3759 91.514 15.0688C92.6539 13.3933 93.7939 11.7192 94.9339 10.0465C94.9923 9.9564 95.0449 9.86264 95.0915 9.76583C95.1217 9.70833 95.1361 9.64378 95.133 9.57887C95.13 9.51396 95.1097 9.45104 95.0742 9.39661C95.031 9.32319 94.9814 9.24978 94.9339 9.18069L92.0472 4.96808C91.3175 3.90143 90.5899 2.83262 89.8645 1.76165L89.07 0.582727C89.0093 0.493547 88.9573 0.398841 88.9145 0.299871C88.9028 0.281546 88.8962 0.260504 88.8951 0.238812C88.894 0.217119 88.8986 0.195521 88.9084 0.176139C88.9182 0.156756 88.9329 0.140256 88.951 0.128258C88.9691 0.116259 88.99 0.109175 89.0117 0.107702C89.3334 0.0817911 89.6594 0.0623582 89.9789 0.060199C91.5874 0.060199 93.1958 0.060199 94.8043 0.060199C95.0634 0.060199 95.3225 0.0774727 95.5794 0.0774727C95.6763 0.0734737 95.7722 0.0987207 95.8546 0.149933C95.937 0.201146 96.0021 0.275957 96.0414 0.364647C96.4473 1.1031 96.8597 1.83507 97.2721 2.56704C97.6218 3.18601 97.9752 3.80282 98.3322 4.41748C98.3514 4.44921 98.3785 4.47544 98.4108 4.49365C98.4432 4.51185 98.4797 4.52142 98.5168 4.52142C98.5539 4.52142 98.5903 4.51185 98.6227 4.49365C98.655 4.47544 98.6821 4.44921 98.7014 4.41748C98.7251 4.38293 98.7489 4.34407 98.7704 4.30736L100.478 1.33845C100.649 1.04048 100.837 0.746827 100.988 0.43806C101.035 0.328411 101.114 0.235733 101.215 0.172444C101.316 0.109155 101.434 0.0782782 101.553 0.0839503C101.769 0.0839503 101.985 0.0709951 102.201 0.0709951C103.94 0.0709951 105.678 0.0709951 107.415 0.0709951C107.669 0.038772 107.926 0.0668856 108.167 0.153045C108.214 0.468289 107.979 0.664777 107.832 0.882857C106.344 3.07517 104.848 5.26245 103.345 7.44469C103.028 7.90676 102.698 8.36667 102.387 8.82658C102.287 8.96909 102.192 9.11159 102.089 9.25842C102.003 9.35644 101.956 9.48227 101.956 9.61253C101.956 9.74279 102.003 9.86862 102.089 9.96664C102.428 10.4395 102.737 10.9361 103.06 11.4176C103.871 12.6138 104.683 13.8079 105.498 14.9997C106.413 16.3284 107.327 17.6628 108.238 19.0029C108.322 19.1258 108.395 19.2567 108.454 19.3937C108.463 19.4138 108.466 19.4358 108.465 19.4577C108.463 19.4796 108.456 19.5007 108.444 19.5193C108.433 19.5379 108.416 19.5532 108.397 19.5641C108.378 19.575 108.357 19.581 108.335 19.5816C108.185 19.5964 108.034 19.6036 107.884 19.6032H104.98V19.5902Z" fill="#E90028"/>
<path id="Vector_5" d="M148.497 16.4233V1.98037C148.493 1.7865 148.5 1.59252 148.519 1.39954C148.52 1.3504 148.53 1.30191 148.55 1.25697C148.57 1.21203 148.599 1.17155 148.635 1.13791C148.671 1.10428 148.713 1.0782 148.759 1.0612C148.805 1.0442 148.854 1.03663 148.903 1.03895C149.009 1.03895 149.119 1.03895 149.225 1.03895C154.73 1.03895 160.236 1.03895 165.741 1.03895C166.389 1.03895 166.545 1.09941 166.534 1.80115C166.534 2.2114 166.534 2.62165 166.534 3.02974C166.533 3.1586 166.522 3.28718 166.499 3.41408C166.487 3.47869 166.454 3.53756 166.405 3.58164C166.357 3.62571 166.295 3.65257 166.229 3.65807C166.122 3.66455 166.013 3.66455 165.906 3.65807C161.415 3.65807 156.925 3.65807 152.435 3.65807C152.219 3.65807 152.004 3.65807 151.788 3.67966C151.749 3.67933 151.712 3.68678 151.677 3.70156C151.641 3.71634 151.61 3.73813 151.583 3.76562C151.557 3.7931 151.536 3.82569 151.523 3.8614C151.509 3.89712 151.503 3.93519 151.505 3.97331C151.49 4.12328 151.485 4.27396 151.488 4.42459C151.488 7.68499 151.488 10.9454 151.488 14.2058C151.488 15.0155 151.488 15.0155 152.325 15.0177H164.696C164.89 15.0123 165.084 15.0188 165.277 15.0371C165.343 15.0422 165.405 15.0711 165.451 15.1184C165.497 15.1657 165.524 15.2281 165.528 15.294C165.543 15.4884 165.545 15.6827 165.547 15.877C165.547 16.2873 165.547 16.6975 165.547 17.1056C165.547 17.5504 165.467 17.6152 165.012 17.6454C164.904 17.6454 164.796 17.6454 164.688 17.6454H151.995C151.93 17.6454 151.865 17.6454 151.801 17.6454C151.763 17.6437 151.725 17.6494 151.69 17.6623C151.655 17.6751 151.622 17.6949 151.594 17.7204C151.567 17.7459 151.544 17.7766 151.529 17.8108C151.513 17.845 151.504 17.882 151.503 17.9196C151.49 18.0708 151.49 18.2219 151.49 18.3731C151.49 21.7198 151.49 25.0666 151.49 28.4134C151.49 29.1475 151.49 29.1497 152.254 29.1497C156.81 29.1497 161.365 29.1497 165.918 29.1497C166.976 29.1497 166.802 29.2986 166.808 30.0436C166.808 30.4754 166.808 30.9073 166.808 31.3391C166.808 31.6587 166.683 31.758 166.376 31.7709C166.16 31.7709 165.944 31.7709 165.728 31.7709H149.259C148.504 31.7709 148.499 31.7709 148.499 31.026C148.499 26.3837 148.499 21.7414 148.499 17.0991L148.497 16.4233Z" fill="#FAFAFA"/>
<path id="Vector_6" d="M131.103 29.3933C132.458 29.4297 133.804 29.1611 135.041 28.6073C135.992 28.1932 136.863 27.6151 137.614 26.8994C138.829 25.7497 139.703 24.2877 140.141 22.6738C140.331 22.0261 140.292 22.1016 140.939 22.0995H142.818C143.09 22.0995 143.161 22.1794 143.157 22.4406C143.112 22.8922 143.001 23.3347 142.826 23.7534C142.328 25.3444 141.506 26.8149 140.41 28.0718C138.929 29.7743 136.992 31.0172 134.827 31.654C133.753 31.9782 132.637 32.1419 131.515 32.1398C130.868 32.1398 130.22 32.1527 129.572 32.0966C128.043 31.9687 126.553 31.5448 125.185 30.8486C123.626 30.051 122.253 28.9316 121.158 27.5644C120.251 26.4061 119.517 25.1224 118.978 23.7534C118.575 22.7309 118.272 21.6715 118.075 20.5902C117.896 19.6963 117.838 18.7959 117.738 17.8977C117.654 17.2534 117.638 16.602 117.691 15.9544C117.693 15.9336 117.693 15.9126 117.691 15.8918C117.646 15.0475 117.799 14.2162 117.887 13.3828C118.132 11.1482 118.831 8.98729 119.941 7.03254C120.436 6.12197 121.056 5.2848 121.782 4.54514C122.225 4.07316 122.696 3.62828 123.192 3.21291C124.304 2.35623 125.551 1.69206 126.882 1.24803C127.903 0.899867 128.969 0.702029 130.047 0.660724C130.41 0.613829 130.774 0.586439 131.14 0.578674C132.256 0.660724 133.383 0.714704 134.464 1.02131C137.537 1.88499 139.961 3.63395 141.628 6.39342C142.286 7.50868 142.774 8.71505 143.079 9.97338C143.096 10.036 143.11 10.0994 143.12 10.1634C143.189 10.66 143.088 10.7032 142.66 10.6946C141.991 10.6816 141.321 10.6946 140.654 10.6946C140.339 10.6946 140.298 10.6578 140.203 10.3448C140.082 9.88787 139.938 9.43744 139.771 8.99526C139.064 7.23953 137.808 5.76006 136.19 4.77833C135.262 4.17824 134.223 3.77207 133.134 3.58429C132.67 3.48623 132.201 3.41414 131.729 3.36837C128.18 3.22154 125.289 4.489 123.132 7.34994C122.381 8.35268 121.798 9.47054 121.405 10.66C121.078 11.6185 120.861 12.6108 120.757 13.6181C120.694 14.2659 120.662 14.9136 120.56 15.5441C120.503 16.1026 120.503 16.6655 120.56 17.224C120.593 17.8027 120.673 18.3813 120.731 18.9514C120.931 21.3512 121.802 23.6463 123.246 25.5736C124.382 27.1102 125.966 28.2568 127.78 28.8556C129.207 29.3436 129.922 29.4213 131.103 29.3933Z" fill="#FAFAFA"/>
<path id="Vector_7" d="M180.313 17.7079V4.62315C180.313 4.38563 180.313 4.14812 180.287 3.91277C180.286 3.88035 180.279 3.84837 180.266 3.81869C180.253 3.78902 180.234 3.76224 180.211 3.73993C180.187 3.71761 180.159 3.70021 180.129 3.68873C180.099 3.67726 180.067 3.67194 180.034 3.6731C179.842 3.6623 179.648 3.65582 179.453 3.65582C176.711 3.65582 173.972 3.65582 171.23 3.65582C170.629 3.65582 170.541 3.62127 170.532 2.95408C170.532 2.54383 170.532 2.13358 170.532 1.72333C170.545 1.12523 170.627 1.04318 171.204 1.03455H192.369C192.839 1.0475 192.969 1.14251 192.986 1.5873C193.008 2.14654 193.001 2.71009 192.986 3.26932C192.986 3.55002 192.867 3.63639 192.572 3.6515C192.42 3.6515 192.269 3.6515 192.118 3.6515C189.463 3.6515 186.808 3.6515 184.154 3.6515C183.96 3.64716 183.766 3.65364 183.573 3.67094C183.485 3.67702 183.403 3.71674 183.343 3.78187C183.284 3.847 183.251 3.93253 183.253 4.02073C183.24 4.2129 183.253 4.40938 183.253 4.60155V30.8985C183.253 31.0713 183.253 31.244 183.253 31.4167C183.253 31.6499 183.167 31.7363 182.953 31.7449C182.78 31.7449 182.608 31.7449 182.435 31.7449C181.852 31.7449 181.269 31.7449 180.686 31.7449C180.358 31.7449 180.302 31.6802 180.302 31.3735V17.7079H180.313Z" fill="#FAFAFA"/>
</g>
</g>
</svg>
