<svg width="60" height="62" viewBox="0 0 60 62" fill="none" xmlns="http://www.w3.org/2000/svg">
<path d="M0 10C0 4.47715 4.47715 0 10 0H50C55.5228 0 60 4.47715 60 10V52C60 57.5228 55.5228 62 50 62H10C4.47715 62 0 57.5228 0 52V10Z" fill="#E31C25"/>
<path d="M30.0053 10H29.9948C18.4159 10 9.00003 19.4185 9.00003 31C8.99284 35.4231 10.393 39.7339 12.9979 43.3086L10.3808 51.1101L18.4526 48.5297C21.8766 50.8013 25.8963 52.0088 30.0053 52C41.5841 52 51 42.5788 51 31C51 19.4211 41.5841 10 30.0053 10ZM42.2246 39.6546C41.718 41.0852 39.7073 42.2717 38.1034 42.6182C37.0061 42.8518 35.5729 43.0382 30.7481 41.038C24.5768 38.4812 20.6025 32.2101 20.2928 31.8032C19.9961 31.3963 17.799 28.4826 17.799 25.4691C17.799 22.4556 19.3294 20.9882 19.9463 20.3582C20.4529 19.8411 21.2903 19.6049 22.0935 19.6049C22.3534 19.6049 22.587 19.618 22.797 19.6285C23.4139 19.6547 23.7236 19.6915 24.1305 20.6654C24.6371 21.886 25.8709 24.8995 26.0179 25.2092C26.1675 25.519 26.3171 25.939 26.1071 26.3459C25.9103 26.7659 25.737 26.9522 25.4273 27.3092C25.1175 27.6662 24.8235 27.9392 24.5138 28.3225C24.2303 28.6559 23.91 29.0129 24.267 29.6297C24.624 30.2335 25.8578 32.2468 27.6743 33.8638C30.0184 35.9507 31.9189 36.6175 32.5988 36.901C33.1054 37.111 33.7091 37.0611 34.0793 36.6673C34.5491 36.1607 35.1293 35.3207 35.7199 34.4938C36.1399 33.9006 36.6701 33.8271 37.2266 34.0371C37.7936 34.234 40.794 35.7171 41.4109 36.0242C42.0278 36.334 42.4346 36.481 42.5843 36.7408C42.7313 37.0007 42.7313 38.2213 42.2246 39.6546Z" fill="#161616"/>
</svg>
