<svg width="61" height="62" viewBox="0 0 61 62" fill="none" xmlns="http://www.w3.org/2000/svg">
<rect x="1.62128" y="0.75" width="58.5" height="60.5" rx="9.25" fill="#FAFAFA"/>
<rect x="1.62128" y="0.75" width="58.5" height="60.5" rx="9.25" stroke="#E31C25" stroke-width="1.5"/>
<path d="M30.877 8.27295H30.8656C18.3344 8.27295 8.14404 18.4661 8.14404 31.0002C8.13626 35.7871 9.65157 40.4525 12.4707 44.3212L9.63836 52.7644L18.3741 49.9718C22.0797 52.4302 26.43 53.737 30.877 53.7274C43.4082 53.7274 53.5986 43.5314 53.5986 31.0002C53.5986 18.469 43.4082 8.27295 30.877 8.27295ZM44.1014 40.3667C43.5531 41.915 41.377 43.199 39.6412 43.574C38.4537 43.8269 36.9025 44.0286 31.681 41.8638C25.002 39.0968 20.7009 32.3099 20.3656 31.8695C20.0446 31.4292 17.6668 28.2758 17.6668 25.0144C17.6668 21.753 19.323 20.165 19.9906 19.4832C20.5389 18.9235 21.4452 18.6678 22.3145 18.6678C22.5957 18.6678 22.8486 18.682 23.0758 18.6934C23.7435 18.7218 24.0787 18.7616 24.519 19.8155C25.0673 21.1366 26.4025 24.3979 26.5616 24.7332C26.7236 25.0684 26.8855 25.5229 26.6582 25.9633C26.4452 26.4178 26.2577 26.6195 25.9224 27.0059C25.5872 27.3922 25.269 27.6877 24.9338 28.1025C24.627 28.4633 24.2804 28.8496 24.6668 29.5172C25.0531 30.1707 26.3883 32.3496 28.3543 34.0996C30.8912 36.3581 32.948 37.0797 33.6838 37.3866C34.2321 37.6138 34.8855 37.5598 35.2861 37.1337C35.7946 36.5854 36.4224 35.6763 37.0616 34.7814C37.5162 34.1394 38.09 34.0598 38.6923 34.2871C39.306 34.5002 42.5531 36.1053 43.2207 36.4377C43.8883 36.7729 44.3287 36.932 44.4906 37.2133C44.6497 37.4945 44.6497 38.8155 44.1014 40.3667Z" fill="#161616"/>
</svg>
