<svg width="61" height="62" viewBox="0 0 61 62" fill="none" xmlns="http://www.w3.org/2000/svg">
<rect x="1.62128" y="0.75" width="58.5" height="60.5" rx="9.25" fill="#FAFAFA"/>
<rect x="1.62128" y="0.75" width="58.5" height="60.5" rx="9.25" stroke="#E31C25" stroke-width="1.5"/>
<path d="M53.7918 26.2444C53.8949 23.2624 53.2427 20.3028 51.896 17.6402C50.9823 16.5477 49.7142 15.8105 48.3127 15.5569C42.5158 15.0309 36.695 14.8153 30.8752 14.9111C25.0765 14.811 19.2767 15.0196 13.5002 15.5361C12.3581 15.7438 11.3013 16.2795 10.4585 17.0777C8.58351 18.8069 8.37517 21.7652 8.16684 24.2652C7.86457 28.7602 7.86457 33.2703 8.16684 37.7652C8.22711 39.1723 8.43662 40.569 8.79184 41.9319C9.04304 42.9841 9.55126 43.9576 10.271 44.7652C11.1195 45.6058 12.201 46.1719 13.3752 46.3902C17.8667 46.9446 22.3923 47.1744 26.9168 47.0777C34.2085 47.1819 40.6043 47.0777 48.1668 46.4944C49.3699 46.2895 50.4818 45.7226 51.3543 44.8694C51.9376 44.2859 52.3733 43.5717 52.6252 42.7861C53.3702 40.4998 53.7362 38.1071 53.7085 35.7027C53.7918 34.5361 53.7918 27.4944 53.7918 26.2444ZM26.1668 36.9527V24.0569L38.5002 30.5361C35.0418 32.4527 30.4793 34.6194 26.1668 36.9527Z" fill="#161616"/>
</svg>
