<svg width="127" height="37" viewBox="0 0 127 37" fill="none" xmlns="http://www.w3.org/2000/svg">
<path d="M17.0375 0.466665V6.34166H12.4158V36.5H5.405V6.34166H0.783333V0.466665H17.0375ZM30.9294 6.34166H25.9944V15.5067H30.8119V21.3033H25.9944V30.625H30.9294V36.5H18.9836V0.466665H30.9294V6.34166ZM42.9836 0.466665C48.8586 0.466665 50.0727 2.62083 50.0727 8.1825V28.7842C50.0727 34.3458 48.8586 36.5 42.9836 36.5H33.0744V0.466665H42.9836ZM43.0619 28.7058V8.26083C43.0619 6.81167 42.6702 6.34166 41.3386 6.34166H40.0852V30.625H41.3386C42.6702 30.625 43.0619 30.155 43.0619 28.7058Z" fill="#E31C25"/>
<path d="M68.6977 36.5H62.4702L60.5511 27.6875H60.1986L58.2794 36.5H52.0519L55.5377 23.4967L52.1694 10.65H58.3969L60.1986 19.345H60.5511L62.3527 10.65H68.5802L65.2119 23.4967L68.6977 36.5ZM85.4525 37.0092C80.3608 37.0092 76.9533 35.09 76.9533 29.2933V7.75167C76.9533 1.955 80.3608 0.0358317 85.4525 0.0358317C90.5442 0.0358317 93.9517 1.955 93.9517 7.75167V16.6425H86.9408V7.79083C86.9408 6.34166 86.275 5.91083 85.4525 5.91083C84.63 5.91083 83.9642 6.34166 83.9642 7.79083V29.2542C83.9642 30.7033 84.63 31.1342 85.4525 31.1342C86.275 31.1342 86.9408 30.7033 86.9408 29.2542V20.3242H93.9517V29.2933C93.9517 35.09 90.5442 37.0092 85.4525 37.0092ZM108.268 6.34166H103.333V15.5067H108.151V21.3033H103.333V30.625H108.268V36.5H96.3225V0.466665H108.268V6.34166ZM126.276 0.466665V6.34166H121.654V36.5H114.643V6.34166H110.022V0.466665H126.276Z" fill="#161616"/>
</svg>
